<svg width="48" height="48" viewBox="0 0 48 48" fill="none" xmlns="http://www.w3.org/2000/svg">
<rect x="0.5" y="0.5" width="47" height="47" rx="15.5" fill="#37B3AF"/>
<path d="M32.7201 13.4933L25.3867 10.7466C24.6267 10.4666 23.3867 10.4666 22.6267 10.7466L15.2934 13.4933C13.8801 14.0266 12.7334 15.68 12.7334 17.1866V27.9866C12.7334 29.0666 13.4401 30.4933 14.3067 31.1333L21.6401 36.6133C22.9334 37.5866 25.0534 37.5866 26.3467 36.6133L33.6801 31.1333C34.5467 30.48 35.2534 29.0666 35.2534 27.9866V17.1866C35.2667 15.68 34.1201 14.0266 32.7201 13.4933ZM28.6401 20.96L22.9067 26.6933C22.7067 26.8933 22.4534 26.9866 22.2001 26.9866C21.9467 26.9866 21.6934 26.8933 21.4934 26.6933L19.3601 24.5333C18.9734 24.1466 18.9734 23.5066 19.3601 23.12C19.7467 22.7333 20.3867 22.7333 20.7734 23.12L22.2134 24.56L27.2401 19.5333C27.6267 19.1466 28.2667 19.1466 28.6534 19.5333C29.0401 19.92 29.0401 20.5733 28.6401 20.96Z" fill="white"/>
<rect x="0.5" y="0.5" width="47" height="47" rx="15.5" stroke="#37B3AF"/>
</svg>
