<svg width="48" height="48" viewBox="0 0 48 48" fill="none" xmlns="http://www.w3.org/2000/svg">
<rect x="0.5" y="0.5" width="47" height="47" rx="15.5" fill="#37B3AF"/>
<path d="M32 10.6665H16C13.7867 10.6665 12 12.4398 12 14.6265V29.1732C12 31.3598 13.7867 33.1332 16 33.1332H17.0133C18.08 33.1332 19.0933 33.5465 19.84 34.2932L22.12 36.5465C23.16 37.5732 24.8533 37.5732 25.8933 36.5465L28.1733 34.2932C28.92 33.5465 29.9467 33.1332 31 33.1332H32C34.2133 33.1332 36 31.3598 36 29.1732V14.6265C36 12.4398 34.2133 10.6665 32 10.6665ZM21.84 25.3465C22.3867 25.3465 22.84 25.7998 22.84 26.3465C22.84 26.8932 22.3867 27.3465 21.84 27.3465H18.2667C17.68 27.3465 17.1333 27.0665 16.7867 26.5865C16.4533 26.1332 16.3733 25.5732 16.5333 25.0398C17 23.6132 18.1467 22.8398 19.16 22.1465C20.2267 21.4265 20.8267 20.9732 20.8267 20.1998C20.8267 19.5065 20.2667 18.9465 19.5733 18.9465C18.88 18.9465 18.3333 19.5198 18.3333 20.2132C18.3333 20.7598 17.88 21.2132 17.3333 21.2132C16.7867 21.2132 16.3333 20.7598 16.3333 20.2132C16.3333 18.4265 17.7867 16.9598 19.5867 16.9598C21.3867 16.9598 22.84 18.4132 22.84 20.2132C22.84 22.0932 21.4267 23.0532 20.2933 23.8265C19.5867 24.3065 18.92 24.7598 18.5867 25.3598H21.84V25.3465ZM30.6667 25.4398H30.3867V26.3598C30.3867 26.9065 29.9333 27.3598 29.3867 27.3598C28.84 27.3598 28.3867 26.9065 28.3867 26.3598V25.4398H25.7733C25.7733 25.4398 25.7733 25.4398 25.76 25.4398C25.1067 25.4398 24.5067 25.0932 24.1733 24.5332C23.84 23.9598 23.84 23.2532 24.1733 22.6932C25.08 21.1332 26.1333 19.3598 27.0933 17.8132C27.52 17.1332 28.3333 16.8265 29.0933 17.0398C29.8533 17.2665 30.3867 17.9598 30.3733 18.7598V23.4532H30.6667C31.2133 23.4532 31.6667 23.9065 31.6667 24.4532C31.6667 24.9998 31.2133 25.4398 30.6667 25.4398Z" fill="white"/>
<path d="M28.3866 23.44V19.52C27.5999 20.8 26.7866 22.1734 26.0532 23.4267H28.3866V23.44Z" fill="white"/>
<rect x="0.5" y="0.5" width="47" height="47" rx="15.5" stroke="#37B3AF"/>
</svg>
