<svg xmlns="http://www.w3.org/2000/svg" width="96" height="96" viewBox="0 0 96 96"><path d="M27.64,75.17a30.19,30.19,0,0,0-5.37-1.28,7.78,7.78,0,0,0-2.4-4.32,9.05,9.05,0,0,0-6.05-2.37c-3.3,0-8.63,3.1-12.6,5.73A2.76,2.76,0,0,0,.84,77.2c2.3,2.21,7,5.92,12.77,6h.13a8.56,8.56,0,0,0,8.4-6.1A27.78,27.78,0,0,1,26,78a19.13,19.13,0,0,0-2,8.43v3.2A6.38,6.38,0,0,0,30.4,96H65.6A6.38,6.38,0,0,0,72,89.6V86.4A19.13,19.13,0,0,0,70,78a27.78,27.78,0,0,1,3.82-.87,8.56,8.56,0,0,0,8.4,6.1h.13c5.76-.08,10.47-3.79,12.77-6A2.76,2.76,0,0,0,96,75a2.8,2.8,0,0,0-1.21-2c-4-2.63-9.44-5.78-12.6-5.73a9,9,0,0,0-6.05,2.37,7.69,7.69,0,0,0-2.4,4.32,29.25,29.25,0,0,0-5.38,1.28,19.38,19.38,0,0,0-2-2.35,19.12,19.12,0,0,0-1.65-1.46,41.77,41.77,0,0,1,9.39-10,7.9,7.9,0,0,0,5.7,2.34A9.12,9.12,0,0,0,85.17,62c4.64-3.39,6.35-9.15,7-12.29a2.76,2.76,0,0,0-2.78-3.26c-4.77.15-11,.72-13.6,2.61a8.59,8.59,0,0,0-3.29,9.62,44.91,44.91,0,0,0-10.4,10.95,19.1,19.1,0,0,0-7.65-2.3v-3A16,16,0,0,0,63.94,51,6.41,6.41,0,0,0,68.8,44.8V36.73a17.22,17.22,0,0,0-.66-4,25.24,25.24,0,0,1,5.74-1.95,8.55,8.55,0,0,0,8.38,6.06h.13c5.74-.07,10.47-3.79,12.77-6h0a2.76,2.76,0,0,0-.38-4.27c-4-2.63-9.35-5.76-12.6-5.73a8.53,8.53,0,0,0-8.46,6.72A28.62,28.62,0,0,0,67,29.67a17.31,17.31,0,0,0-3-4.53A35.38,35.38,0,0,1,74.06,14.88a7.65,7.65,0,0,0,4.84,2.4c.3,0,.61,0,.91,0a9.17,9.17,0,0,0,5.36-1.78c4.64-3.39,6.35-9.15,7-12.28A2.73,2.73,0,0,0,91.5,1a2.7,2.7,0,0,0-2.16-1c-4.77.15-11,.72-13.6,2.61A9.05,9.05,0,0,0,72.18,8a7.79,7.79,0,0,0,.24,4.09A37.83,37.83,0,0,0,61.58,23a17.58,17.58,0,0,0-2.43-1.46c-.51-4.9-5.31-8.75-11.15-8.75s-10.61,3.82-11.15,8.69h0A17.07,17.07,0,0,0,34.39,23,38,38,0,0,0,23.58,12.13,7.79,7.79,0,0,0,23.82,8a9,9,0,0,0-3.57-5.43C17.66.73,11.43.15,6.66,0A2.76,2.76,0,0,0,3.88,3.27c.6,3.13,2.3,8.89,7,12.28a9.17,9.17,0,0,0,5.36,1.78c.3,0,.61,0,.91,0a7.69,7.69,0,0,0,4.84-2.4A35.33,35.33,0,0,1,32,25.11a17.13,17.13,0,0,0-3,4.55,29,29,0,0,0-6.67-2.14,8.53,8.53,0,0,0-8.46-6.72h-.06c-3.22,0-8.59,3.11-12.54,5.73A2.76,2.76,0,0,0,.84,30.8c2.3,2.21,7,5.92,12.77,6h.13a8.55,8.55,0,0,0,8.38-6.06,25.63,25.63,0,0,1,5.73,1.94,17.92,17.92,0,0,0-.65,4V44.8A6.41,6.41,0,0,0,32.06,51,16,16,0,0,0,41.6,64.25v3a19.09,19.09,0,0,0-7.66,2.3,45.1,45.1,0,0,0-10.4-10.95A8.59,8.59,0,0,0,20.25,49c-2.6-1.88-8.82-2.46-13.6-2.61a2.77,2.77,0,0,0-2.77,3.27c.6,3.13,2.3,8.89,7,12.28a9.18,9.18,0,0,0,5.36,1.77,7.89,7.89,0,0,0,5.7-2.33,41.59,41.59,0,0,1,9.39,10,21,21,0,0,0-1.66,1.47,18.35,18.35,0,0,0-2,2.34ZM13.74,80h-.09c-4.45-.06-8.36-3.06-10.18-4.72,4.63-3,8.53-4.88,10.28-4.88h0a5.86,5.86,0,0,1,3.92,1.51,4.54,4.54,0,0,1,1.5,3.36A5.17,5.17,0,0,1,13.74,80ZM78.3,71.91a5.86,5.86,0,0,1,3.92-1.51c1.76,0,5.65,1.84,10.31,4.88-1.82,1.66-5.74,4.66-10.19,4.72h-.08a5.17,5.17,0,0,1-5.46-4.73,4.54,4.54,0,0,1,1.5-3.36ZM77.63,51.6c1.4-1,5.67-1.76,11.23-2-.53,2.4-2,7.12-5.58,9.74a5.18,5.18,0,0,1-3.76,1.17A5.24,5.24,0,0,1,76,58.71a5.2,5.2,0,0,1,1.61-7.11ZM82.22,24h0c1.74,0,5.65,1.86,10.28,4.88-1.83,1.66-5.74,4.66-10.19,4.72h-.08a5.17,5.17,0,0,1-5.46-4.73,5.16,5.16,0,0,1,1.71-3.55A5.22,5.22,0,0,1,82.22,24ZM75.31,8.7a5.85,5.85,0,0,1,2.32-3.5c1.39-1,5.67-1.76,11.23-2-.53,2.4-2,7.12-5.58,9.74h0a5.8,5.8,0,0,1-4,1.14,4.37,4.37,0,0,1-3.93-5.4ZM16.76,14.1a5.85,5.85,0,0,1-4-1.14c-3.6-2.62-5.05-7.33-5.58-9.74,5.56.22,9.83,1,11.23,2h0a5.85,5.85,0,0,1,2.32,3.5,4.37,4.37,0,0,1-3.93,5.4Zm-3,19.5h-.08c-4.44-.06-8.36-3.06-10.18-4.72C8.1,25.86,12,24,13.75,24h0a5.18,5.18,0,0,1,5.42,4.87,5.17,5.17,0,0,1-5.47,4.73Zm-1,25.76C9.12,56.74,7.67,52,7.14,49.62c5.56.21,9.83,1,11.23,2A5.19,5.19,0,0,1,20,58.71a5.18,5.18,0,0,1-3.49,1.81,5.13,5.13,0,0,1-3.76-1.16Zm56.08,27v3.2a3.21,3.21,0,0,1-3.2,3.2H62.4V89.6a1.6,1.6,0,0,0-3.2,0v3.2H36.8V89.6a1.6,1.6,0,0,0-3.2,0v3.2H30.4a3.21,3.21,0,0,1-3.2-3.2V86.4A16,16,0,0,1,41.85,70.47a6.36,6.36,0,0,0,12.3,0A16,16,0,0,1,68.8,86.4Zm-20.93-64C65.3,22.4,65.6,36.16,65.6,36.73v.15a4,4,0,0,0-3.4.88,16.25,16.25,0,0,0-13.09-7.33,4.8,4.8,0,0,0-2.85.8L34.73,38.92a4.05,4.05,0,0,0-1.83-1.74,4,4,0,0,0-2.5-.3v-.14c0-.58.29-14.34,17.47-14.34ZM48,16a8.12,8.12,0,0,1,7.46,4.16,28.5,28.5,0,0,0-7.58-1h0a28.21,28.21,0,0,0-7.31.9A8.15,8.15,0,0,1,48,16ZM35.2,49.6A1.6,1.6,0,0,0,33.6,48a3.21,3.21,0,0,1-3.2-3.2v-4a.8.8,0,0,1,1.6,0v.8a1.6,1.6,0,0,0,2.49,1.33L48,33.9h0a1.54,1.54,0,0,1,.91-.27,13.31,13.31,0,0,1,11.94,8.48A1.6,1.6,0,0,0,64,41.6v-.8a.8.8,0,0,1,1.6,0v4A3.21,3.21,0,0,1,62.4,48a1.6,1.6,0,0,0-1.6,1.6,12.8,12.8,0,1,1-25.6,0ZM48,65.6h0a16.38,16.38,0,0,0,3.2-.32V68.8a3.2,3.2,0,0,1-6.4,0V65.28a16.31,16.31,0,0,0,3.2.32Z" fill="#37b3af"/><path d="M52.48,57A1.6,1.6,0,0,0,49.92,55a2.46,2.46,0,0,1-3.84,0A1.6,1.6,0,1,0,43.52,57,5.52,5.52,0,0,0,48,59.2,5.61,5.61,0,0,0,52.48,57Z" fill="#37b3af"/></svg>