<svg xmlns="http://www.w3.org/2000/svg" width="96" height="96" viewBox="0 0 96 96"><path d="M28.93,73.47l-6.78-7.56H9.23c.28,1.08.6,2.15,1,3.2a39.94,39.94,0,0,0,73.52,4.71c.52-1,1-2.11,1.42-3.2h-9a3.9,3.9,0,0,1-3.54-2.26L70,62.86,62.92,79.07a3.86,3.86,0,0,1-3.34,2.36h-.29A3.83,3.83,0,0,1,56,79.56l-5.7-9.43H46.52A3.78,3.78,0,0,1,43,67.87L39.64,60.7l-4,11.4a4,4,0,0,1-6.68,1.37ZM40,69.15l-1.43,4v0a7.21,7.21,0,0,1-11.93,2.49l-.07-.07-5.88-6.56H13.59A36.74,36.74,0,0,0,80.1,73.82h-4a7.15,7.15,0,0,1-6-3.24l-4.25,9.75h0a7,7,0,0,1-6.06,4.28h-.51A7,7,0,0,1,53.2,81.2l-4.76-7.87H46.52a7,7,0,0,1-6.46-4.14Z" fill="#37b3af" fill-rule="evenodd"/><path d="M23,20.25a3.46,3.46,0,0,1,1.36,0,3.59,3.59,0,0,1,1.25.51l14,9.35L53,2A3.45,3.45,0,0,1,54,.71,3.47,3.47,0,0,1,57.16.16,3.49,3.49,0,0,1,58.57,1C65,7.41,72.28,15.16,78,24.2c6.68,10.64,9.93,21.06,9.93,31.86A39.88,39.88,0,0,1,87,64.53h-9.5l-3.93-8.35a4,4,0,0,0-3.64-2.26,3.88,3.88,0,0,0-3.54,2.36l-7.27,16.8L54.77,66a3.84,3.84,0,0,0-3.34-1.87H47.79L43,53.72a3.88,3.88,0,0,0-3.74-2.26,3.93,3.93,0,0,0-3.53,2.66L31.19,67,26,61.29a4.41,4.41,0,0,0-2.1-1.18A4,4,0,0,0,23,60l-14.82.1a39,39,0,0,1-.21-4c0-10,4.29-21.57,12.75-34.33A3.49,3.49,0,0,1,23,20.25ZM55.87,3.36h0l-15,31.46L23.8,23.43a.21.21,0,0,0-.1,0,.21.21,0,0,0-.11,0,.21.21,0,0,0-.1,0,.23.23,0,0,0-.07.07h0C15.13,36,11.2,46.92,11.2,56.06c0,.28,0,.57,0,.85l8.62-.1H23A7.42,7.42,0,0,1,28.24,59l.05,0,1.65,1.8,2.74-7.8a7.14,7.14,0,0,1,6.37-4.81,7.07,7.07,0,0,1,6.83,4.1h0l4,8.56h1.59a7,7,0,0,1,6.08,3.42l1.1,1.79L63.42,55h0a7.09,7.09,0,0,1,6.48-4.29,7.25,7.25,0,0,1,6.5,4l0,0,3.08,6.55h4.8a36.94,36.94,0,0,0,.38-5.27c0-10.11-3-20-9.44-30.16C69.77,17.18,62.67,9.64,56.31,3.28h0a.3.3,0,0,0-.11-.07h-.12a.23.23,0,0,0-.12.06A.16.16,0,0,0,55.87,3.36Z" fill="#37b3af" fill-rule="evenodd"/></svg>