<svg xmlns="http://www.w3.org/2000/svg" width="96" height="96" viewBox="0 0 96 96"><path d="M51.2,44.8H44.8A11.22,11.22,0,0,0,33.61,56v8h0a4.8,4.8,0,0,0,3.28,4.55,11.21,11.21,0,0,0,6.32,8.76v1.23a9.61,9.61,0,0,0-8,9.46v3.2A4.81,4.81,0,0,0,40,96H56a4.8,4.8,0,0,0,4.79-4.8V88a9.61,9.61,0,0,0-8-9.46V77.31a11.22,11.22,0,0,0,6.31-8.76A4.8,4.8,0,0,0,62.39,64V56A11.2,11.2,0,0,0,51.2,44.8ZM57.59,88v3.2A1.59,1.59,0,0,1,56,92.8H40a1.6,1.6,0,0,1-1.6-1.6V88a6.39,6.39,0,0,1,5.12-6.27,4.46,4.46,0,0,0,1.06,1.64A4.73,4.73,0,0,0,48,84.8,4.78,4.78,0,0,0,50.71,84a4.73,4.73,0,0,0,1.75-2.22A6.38,6.38,0,0,1,57.59,88Zm-8-8h0a1.61,1.61,0,0,1-.47,1.13A1.61,1.61,0,0,1,46.4,80V78.27a10.1,10.1,0,0,0,3.2,0Zm9.59-16a1.6,1.6,0,0,1-.46,1.13,1.63,1.63,0,0,1-1.14.47A1.6,1.6,0,0,0,56,67.2a8,8,0,1,1-16,0,1.6,1.6,0,0,0-1.6-1.6,1.6,1.6,0,0,1-1.6-1.6V61.6a.8.8,0,0,1,1.6,0,1.6,1.6,0,0,0,3.2,0,2.77,2.77,0,0,1,.68-1.81,2.61,2.61,0,0,1,1.6-.93A17.7,17.7,0,0,0,48,57.76a17.7,17.7,0,0,0,4.11,1.1,2.77,2.77,0,0,1,1.63,1,2.83,2.83,0,0,1,.66,1.78,1.6,1.6,0,1,0,3.19,0,.8.8,0,0,1,1.6,0Zm0-6.32a4,4,0,0,0-2.73.42,5.9,5.9,0,0,0-3.84-2.4,13.16,13.16,0,0,1-3.89-1.12,1.59,1.59,0,0,0-1.44,0A13.16,13.16,0,0,1,43.4,55.7a5.75,5.75,0,0,0-3.56,2c-.1.11-.19.23-.28.35h0a4,4,0,0,0-2.75-.42V56a8,8,0,0,1,8-8h6.4a8,8,0,0,1,8,8Z" fill="#37b3af"/><path d="M20.73,52.11a6.4,6.4,0,1,0-12.6,0A12.81,12.81,0,0,0,0,64v3.2a4.8,4.8,0,0,0,3.28,4.55,11.22,11.22,0,0,0,6.31,8.76v1.23a9.61,9.61,0,0,0-8,9.46A4.8,4.8,0,0,0,6.43,96h16a4.81,4.81,0,0,0,4.8-4.8,9.61,9.61,0,0,0-8-9.46V80.51a11.21,11.21,0,0,0,6.32-8.76,4.8,4.8,0,0,0,3.28-4.55V64a12.81,12.81,0,0,0-8.09-11.89Zm-9.5-.91a3.2,3.2,0,0,1,6.4,0,.43.43,0,0,1,0,.11A11.87,11.87,0,0,0,16,51.2h-3.2a12.14,12.14,0,0,0-1.59.11s0-.07,0-.11Zm1.6,3.2H16a9.58,9.58,0,0,1,9,6.43c-.09,0-.16,0-.25,0h0a4,4,0,0,0-2.1.6,9.66,9.66,0,0,0-5-3.58,3.17,3.17,0,0,0-3.47,1.44A9.18,9.18,0,0,1,7.62,63,4,4,0,0,0,4,60.8a2.13,2.13,0,0,0-.25,0h0a9.58,9.58,0,0,1,9-6.43ZM24,91.2h0a1.61,1.61,0,0,1-.47,1.13,1.59,1.59,0,0,1-1.13.47h-16a1.6,1.6,0,0,1-1.59-1.6A6.39,6.39,0,0,1,10,84.93,4.49,4.49,0,0,0,11,86.57,4.69,4.69,0,0,0,14.43,88a4.83,4.83,0,0,0,4.46-3.07A6.41,6.41,0,0,1,24,91.2Zm-8-8h0a1.6,1.6,0,0,1-1.6,1.6,1.57,1.57,0,0,1-1.14-.49,1.53,1.53,0,0,1-.46-1.11V81.47a10.68,10.68,0,0,0,1.6.13,10.79,10.79,0,0,0,1.6-.13Zm9.59-16h0a1.59,1.59,0,0,1-.47,1.13A1.61,1.61,0,0,1,24,68.8a1.6,1.6,0,0,0-1.6,1.6,8,8,0,1,1-16,0,1.59,1.59,0,0,0-1.59-1.6,1.6,1.6,0,0,1-1.6-1.6V64.8a.8.8,0,0,1,1.6,0,1.6,1.6,0,0,0,1.75,1.6c6.4-.64,9.21-3.67,10.27-5.48h0a5.9,5.9,0,0,1,4,3.88,1.6,1.6,0,0,0,3.2,0,.8.8,0,0,1,1.6,0Z" fill="#37b3af"/><path d="M87.87,52.11a6.39,6.39,0,1,0-12.59,0A12.77,12.77,0,0,0,67.19,64v3.2a4.8,4.8,0,0,0,.9,2.81,4.85,4.85,0,0,0,2.37,1.74,11.26,11.26,0,0,0,6.32,8.76v1.23a9.63,9.63,0,0,0-8,9.46,4.81,4.81,0,0,0,4.8,4.8h16a4.8,4.8,0,0,0,4.79-4.8,9.61,9.61,0,0,0-8-9.46V80.51a11.22,11.22,0,0,0,6.31-8.76A4.76,4.76,0,0,0,96,67.2V64a12.81,12.81,0,0,0-8.09-11.89Zm-9.49-.91a3.2,3.2,0,1,1,6.39,0s0,.07,0,.11a12.14,12.14,0,0,0-1.59-.11H80a11.9,11.9,0,0,0-1.59.11S78.38,51.24,78.38,51.2ZM80,54.4h3.19a9.59,9.59,0,0,1,5.55,1.77,9.72,9.72,0,0,1,3.5,4.66c-.09,0-.16,0-.25,0h0a4,4,0,0,0-2.11.6,9.68,9.68,0,0,0-5-3.58,3.18,3.18,0,0,0-3.48,1.44A9.14,9.14,0,0,1,74.76,63a4,4,0,0,0-3.58-2.22l-.25,0h0a9.58,9.58,0,0,1,9-6.43ZM91.17,91.2h0a1.6,1.6,0,0,1-1.6,1.6h-16A1.6,1.6,0,0,1,72,91.2a6.41,6.41,0,0,1,5.12-6.27,4.36,4.36,0,0,0,1.07,1.64A4.69,4.69,0,0,0,81.57,88,4.79,4.79,0,0,0,86,84.93a6.41,6.41,0,0,1,5.13,6.27Zm-8-8h0a1.59,1.59,0,0,1-1.6,1.6,1.59,1.59,0,0,1-1.14-.49A1.52,1.52,0,0,1,80,83.2V81.47a10,10,0,0,0,3.19,0Zm9.59-16h0a1.59,1.59,0,0,1-.47,1.13,1.61,1.61,0,0,1-1.13.47,1.6,1.6,0,0,0-1.6,1.6,8,8,0,1,1-16,0,1.61,1.61,0,0,0-.47-1.13A1.59,1.59,0,0,0,72,68.8a1.6,1.6,0,0,1-1.6-1.6V64.8a.8.8,0,0,1,1.6,0A1.61,1.61,0,0,0,72.51,66a1.58,1.58,0,0,0,1.23.4c6.4-.64,9.21-3.67,10.27-5.47h0a5.9,5.9,0,0,1,4,3.88,1.6,1.6,0,0,0,3.2,0,.8.8,0,0,1,1.6,0Z" fill="#37b3af"/><path d="M93.34,8.05,48.56.05a3,3,0,0,0-1.12,0l-44.78,8h0A3.22,3.22,0,0,0,.34,9.76a3.26,3.26,0,0,0,0,2.89,3.19,3.19,0,0,0,2.32,1.71l7,1.24V27.5h0A4.82,4.82,0,0,0,6.43,32v4.8A3.21,3.21,0,0,0,9.63,40h3.2A3.21,3.21,0,0,0,16,36.8V32a4.82,4.82,0,0,0-3.2-4.51V16.17l6.39,1.14V32c0,1.88,2.08,8,28.78,8s28.78-6.12,28.78-8V17.31l16.56-2.95a3.21,3.21,0,0,0,2.32-1.72,3.24,3.24,0,0,0,0-2.88,3.19,3.19,0,0,0-2.32-1.71ZM12.83,36.8H9.63V32a1.6,1.6,0,0,1,3.2,0Zm60.75-4.95c-.21.48-2.81,4.95-25.58,4.95s-25.36-4.46-25.58-4.95v-14l25,4.47h0a3.64,3.64,0,0,0,.56,0,3.43,3.43,0,0,0,.56,0l25-4.47ZM92.77,11.2,48,19.2l-44.76-8L48,3.2l44.8,8Z" fill="#37b3af"/></svg>