<svg xmlns="http://www.w3.org/2000/svg" width="96" height="96" viewBox="0 0 96 96"><path d="M43.3,90.91A3.61,3.61,0,0,0,46,92.1a3.57,3.57,0,0,0,1.33-.25A3.62,3.62,0,0,0,49,90.52a3.55,3.55,0,0,0,.63-2.06v-.72a12.78,12.78,0,0,0,20.76-2.17A9.59,9.59,0,0,0,81.46,74.43,12.79,12.79,0,0,0,92.8,61.72a12.44,12.44,0,0,0-.63-4,12.82,12.82,0,0,0,.72-13.26,12.79,12.79,0,0,0-5.1-20.29A12.66,12.66,0,0,0,77.13,13.92a16,16,0,0,0-29.57.36c-.2-.24-.37-.51-.59-.74l-1.2-1.26a26.48,26.48,0,0,0-38.14,0C-2.74,23-2.5,41.29,8.11,52.21Zm6.33-70.75a12.79,12.79,0,0,1,24.86-4.23h0a12.66,12.66,0,0,1,.73,4.22,1.6,1.6,0,0,0,3.19,0,15.11,15.11,0,0,0-.23-2.69,9.46,9.46,0,0,1,6.57,8.09v0a7.57,7.57,0,0,1,.06.95,9.73,9.73,0,0,1-1.38,5A1.6,1.6,0,0,0,84,33.75a1.59,1.59,0,0,0,2.22-.61,12.9,12.9,0,0,0,1.74-5.32,9.63,9.63,0,0,1,4.88,8.32,9.47,9.47,0,0,1-3,7l0,0h0a9.46,9.46,0,0,1-5.18,2.5,1.6,1.6,0,0,0,.23,3.18H85a12.7,12.7,0,0,0,5.36-2.09,9.43,9.43,0,0,1,.8,3.81,9.32,9.32,0,0,1-2.08,5.95A9.5,9.5,0,0,1,83,60a1.6,1.6,0,0,0,.23,3.19h.23a12.83,12.83,0,0,0,6.06-2.62A9.27,9.27,0,0,1,80.27,71.3a9.49,9.49,0,0,0-4.42-4,1.6,1.6,0,1,0-1.27,2.93,6.38,6.38,0,0,1,3.28,3.27h0a6.39,6.39,0,0,1-1.32,7.11A6.44,6.44,0,0,1,72,82.51c-.14,0-.28,0-.41,0A13.57,13.57,0,0,0,72,79.31a1.6,1.6,0,1,0-3.2,0,9.6,9.6,0,0,1-19.19,0ZM9.93,14.54a23.26,23.26,0,0,1,33.54,0l1.2,1.25h0a6.42,6.42,0,0,1,1.77,4.42V88.46a.43.43,0,0,1-.29.41.41.41,0,0,1-.48-.12L10.45,50C1.13,40.43.89,23.85,9.93,14.54Z" fill="#37b3af"/></svg>