<svg xmlns="http://www.w3.org/2000/svg" width="96" height="96" viewBox="0 0 96 96"><path d="M12.8,4.8V91.2A4.81,4.81,0,0,0,17.6,96H75.2A4.81,4.81,0,0,0,80,91.2V89.31a4.78,4.78,0,0,0,2.31-1.75,4.73,4.73,0,0,0,.89-2.76V4.8A4.81,4.81,0,0,0,78.4,0H17.6a4.81,4.81,0,0,0-4.8,4.8Zm64,86.4a1.6,1.6,0,0,1-1.6,1.6H17.6a1.6,1.6,0,1,1,0-3.2H76.8ZM80,4.8v80a1.6,1.6,0,0,1-1.6,1.6H17.6a5.09,5.09,0,0,0-1.6.29V4.8a1.6,1.6,0,0,1,1.6-1.6H78.4A1.6,1.6,0,0,1,80,4.8Z" fill="#37b3af"/><path d="M24,19.2h1.6v16A12.8,12.8,0,0,0,38.4,48h3.2v6.4a4.85,4.85,0,0,0-4.8,4.8A4.81,4.81,0,0,0,41.6,64H54.4a4.85,4.85,0,0,0,4.8-4.8,4.81,4.81,0,0,0-4.8-4.8V48h3.2A12.8,12.8,0,0,0,70.4,35.2v-16H72a4.81,4.81,0,0,0,4.8-4.8A4.87,4.87,0,0,0,72,9.6H68.8a8,8,0,0,0-8,7.64l-.74,16.5a3.21,3.21,0,0,1-3.2,3.06H54.4V17.6a4.85,4.85,0,0,0,4.8-4.8A4.81,4.81,0,0,0,54.4,8H41.6a4.85,4.85,0,0,0-4.8,4.8,4.81,4.81,0,0,0,4.8,4.8V36.8H39.14a3.21,3.21,0,0,1-2.21-.88,3.26,3.26,0,0,1-1-2.17L35.2,17.24a8,8,0,0,0-8-7.64H24a4.85,4.85,0,0,0-4.8,4.8,4.79,4.79,0,0,0,1.4,3.39A4.84,4.84,0,0,0,24,19.2Zm0-6.4h3.2A4.8,4.8,0,0,1,32,17.38l.74,16.52h0a6.34,6.34,0,0,0,2,4.33A6.42,6.42,0,0,0,39.14,40H43.2a1.6,1.6,0,0,0,1.6-1.6V16a1.6,1.6,0,0,0-1.6-1.6H41.6A1.6,1.6,0,0,1,40,12.8a1.64,1.64,0,0,1,1.6-1.6H54.4A1.6,1.6,0,0,1,56,12.8a1.68,1.68,0,0,1-1.6,1.6H52.8A1.6,1.6,0,0,0,51.2,16V38.4a1.61,1.61,0,0,0,.47,1.13A1.59,1.59,0,0,0,52.8,40h4.06a6.39,6.39,0,0,0,6.4-6.1L64,17.39a4.74,4.74,0,0,1,1.48-3.26A4.81,4.81,0,0,1,68.8,12.8H72a1.66,1.66,0,0,1,1.6,1.6A1.6,1.6,0,0,1,72,16H70.4a3.21,3.21,0,0,0-3.2,3.2v16a9.61,9.61,0,0,1-9.6,9.6H52.8a1.6,1.6,0,0,0-1.6,1.6V56a1.61,1.61,0,0,0,.47,1.13,1.59,1.59,0,0,0,1.13.47h1.6A1.6,1.6,0,0,1,56,59.2a1.66,1.66,0,0,1-1.6,1.6H41.6A1.6,1.6,0,0,1,40,59.2a1.66,1.66,0,0,1,1.6-1.6h1.6A1.6,1.6,0,0,0,44.8,56V46.4a1.6,1.6,0,0,0-1.6-1.6H38.4a9.59,9.59,0,0,1-9.6-9.6v-16A3.21,3.21,0,0,0,25.6,16H24a1.6,1.6,0,0,1-1.6-1.6A1.65,1.65,0,0,1,24,12.8Z" fill="#37b3af"/><path d="M64,68.8H32A1.6,1.6,0,0,0,32,72H64a1.6,1.6,0,0,0,0-3.2Z" fill="#37b3af"/><path d="M57.6,75.2H38.4a1.6,1.6,0,1,0,0,3.2H57.6a1.6,1.6,0,1,0,0-3.2Z" fill="#37b3af"/></svg>