<svg xmlns="http://www.w3.org/2000/svg" width="96" height="96" viewBox="0 0 96 96"><path d="M48,12.8A35.23,35.23,0,1,0,72.88,23.12,35.21,35.21,0,0,0,48,12.8ZM60.22,28.32h0a2.39,2.39,0,0,0,2,3.68H68.3L52.87,48.48,57,38.53A2.4,2.4,0,0,0,54.8,35.2H49L48.85,35,56,17.06h0a31.77,31.77,0,0,1,8.86,3.8ZM65.6,47.94v.14a4,4,0,0,0-3.41.89,17.25,17.25,0,0,0-2.58-3l4.19-4.47h0a15.62,15.62,0,0,1,1.8,6.45ZM48,73.6A12.8,12.8,0,0,1,35.2,60.8a1.61,1.61,0,0,0-.47-1.13,1.59,1.59,0,0,0-1.13-.47A3.21,3.21,0,0,1,30.4,56V52A.8.8,0,0,1,32,52v.8a1.61,1.61,0,0,0,.85,1.41,1.59,1.59,0,0,0,1.64-.08l13.56-9a1.48,1.48,0,0,1,.89-.26,15.2,15.2,0,0,1,1.89.22L48.37,51a2.47,2.47,0,0,0,4.08,2.64l5-5.31h0a13.8,13.8,0,0,1,3.46,5A1.6,1.6,0,0,0,64,52.8V52a.8.8,0,1,1,1.6,0v4a3.21,3.21,0,0,1-3.2,3.2,1.6,1.6,0,0,0-1.6,1.6A12.8,12.8,0,0,1,48,73.6Zm-.76-43.18h0a28,28,0,0,0-6.69.88,8.3,8.3,0,0,1,3.15-3.1,8.15,8.15,0,0,1,4.3-1c.18,0,.34,0,.51,0Zm-1.3,3.25-.06.14A3.34,3.34,0,0,0,49,38.4H53.6l-1.52,3.67h0a17,17,0,0,0-2.93-.43,4.48,4.48,0,0,0-2.88.8L34.73,50.13h0a4.05,4.05,0,0,0-1.83-1.74,4,4,0,0,0-2.5-.31v-.14c0-.56.28-13.26,15.54-14.27ZM16,48A31.78,31.78,0,0,1,52.83,16.4l-3.08,7.72h0A12.76,12.76,0,0,0,48,24c-5.82,0-10.61,3.82-11.15,8.69-9.5,4.72-9.65,15.11-9.65,15.25V56a6.41,6.41,0,0,0,4.86,6.21A16.05,16.05,0,0,0,41.6,75.45v3.91A32.05,32.05,0,0,1,16,48ZM44.8,79.84V76.48a16.16,16.16,0,0,0,6.4,0v3.36c-1.05.1-2.12.16-3.2.16S45.85,79.94,44.8,79.84Zm9.6-.48v-3.9a16,16,0,0,0,9.54-13.25A6.41,6.41,0,0,0,68.8,56V47.94a18.51,18.51,0,0,0-2.72-8.89l5.07-5.41h0a2.87,2.87,0,0,0-2.09-4.84H63.7l3.81-6.11h0A32,32,0,0,1,54.4,79.36Z" fill="#37b3af"/><path d="M93.12,40.3,88.5,38.46a41.09,41.09,0,0,0-5.12-12.34l2-4.58h0a4.23,4.23,0,0,0,.33-2.3,4.18,4.18,0,0,0-1-2.13c-.76-.93-1.64-1.89-2.78-3.06s-2.12-2-3-2.75a4.36,4.36,0,0,0-2.13-1,4.29,4.29,0,0,0-2.32.32l-4.59,2A41,41,0,0,0,57.54,7.51L55.69,2.88A4.24,4.24,0,0,0,54.29,1,4.36,4.36,0,0,0,52.14.18C50.9.06,49.55,0,48,0s-2.9.06-4.12.18A4.38,4.38,0,0,0,41.72,1,4.46,4.46,0,0,0,40.3,2.88L38.46,7.51a41.09,41.09,0,0,0-12.34,5.12l-4.58-2a4.14,4.14,0,0,0-2.3-.33,4.25,4.25,0,0,0-2.13.94c-.93.77-1.89,1.64-3.06,2.79s-2,2.11-2.75,3h0a4.19,4.19,0,0,0-1,2.13,4.29,4.29,0,0,0,.32,2.32l2,4.58A41.09,41.09,0,0,0,7.5,38.46L2.88,40.31a4.33,4.33,0,0,0-2.7,3.56C.06,45.1,0,46.46,0,48s.06,2.9.18,4.12A4.34,4.34,0,0,0,1,54.28,4.46,4.46,0,0,0,2.88,55.7L7.5,57.54a41,41,0,0,0,5.12,12.34l-1.95,4.58a4.16,4.16,0,0,0-.33,2.31,4.25,4.25,0,0,0,.94,2.12c.77.93,1.64,1.89,2.79,3.07s2.11,2,3,2.74h0a4.11,4.11,0,0,0,2.13,1,4.29,4.29,0,0,0,2.32-.32l4.58-2A41.09,41.09,0,0,0,38.46,88.5l1.85,4.62a4.33,4.33,0,0,0,3.56,2.7c1.23.12,2.59.18,4.13.18s2.9-.06,4.12-.18A4.38,4.38,0,0,0,54.28,95a4.46,4.46,0,0,0,1.42-1.85l1.84-4.62a41,41,0,0,0,12.34-5.12l4.58,2h0a4.25,4.25,0,0,0,2.31.33,4.18,4.18,0,0,0,2.12-1c.93-.76,1.89-1.64,3.07-2.78s2-2.12,2.74-3a4.23,4.23,0,0,0,.64-4.45l-2-4.58A41.09,41.09,0,0,0,88.5,57.55l4.62-1.86A4.24,4.24,0,0,0,95,54.29a4.36,4.36,0,0,0,.86-2.15c.12-1.24.18-2.6.18-4.14a40.63,40.63,0,0,0-.18-4.13A4.32,4.32,0,0,0,95,41.72a4.37,4.37,0,0,0-1.84-1.42Zm-.48,11.54a1.08,1.08,0,0,1-.7.88l-5.41,2.16a1.62,1.62,0,0,0-1,1.15,37.88,37.88,0,0,1-5.32,12.83,1.6,1.6,0,0,0-.13,1.5l2.29,5.36a1.06,1.06,0,0,1-.14,1.14c-.7.85-1.52,1.76-2.56,2.81s-2,1.88-2.86,2.6h0a1.06,1.06,0,0,1-1.12.12L70.36,80.1a1.6,1.6,0,0,0-1.5.13A38,38,0,0,1,56,85.55a1.62,1.62,0,0,0-1.15,1l-2.15,5.4a1.12,1.12,0,0,1-.91.71,36.57,36.57,0,0,1-3.82.16,35.24,35.24,0,0,1-3.84-.17,1.11,1.11,0,0,1-.89-.7l-2.15-5.39a1.59,1.59,0,0,0-1.15-1,38.1,38.1,0,0,1-12.83-5.33,1.66,1.66,0,0,0-.87-.25,1.68,1.68,0,0,0-.63.12l-5.36,2.29a1,1,0,0,1-1.13-.14c-.86-.7-1.76-1.52-2.82-2.56s-1.87-2-2.6-2.86h0a1.06,1.06,0,0,1-.12-1.12l2.29-5.35a1.6,1.6,0,0,0-.13-1.5A38.11,38.11,0,0,1,10.45,56a1.61,1.61,0,0,0-1-1.16l-5.4-2.15a1.12,1.12,0,0,1-.71-.91A36.36,36.36,0,0,1,3.2,48a37.94,37.94,0,0,1,.17-3.84,1.13,1.13,0,0,1,.7-.89l5.41-2.15a1.61,1.61,0,0,0,1-1.15,37.88,37.88,0,0,1,5.32-12.83,1.6,1.6,0,0,0,.13-1.5l-2.29-5.36a1.06,1.06,0,0,1,.14-1.13c.71-.86,1.53-1.76,2.56-2.82s2-1.87,2.86-2.6h0a1.08,1.08,0,0,1,1.12-.12l5.36,2.29h0a1.6,1.6,0,0,0,1.5-.13A38,38,0,0,1,40,10.45a1.61,1.61,0,0,0,1.15-1l2.15-5.4a1.12,1.12,0,0,1,.91-.71A36.36,36.36,0,0,1,48,3.2a37.94,37.94,0,0,1,3.84.17,1.13,1.13,0,0,1,.89.7l2.15,5.41a1.61,1.61,0,0,0,1.15,1,37.88,37.88,0,0,1,12.83,5.32,1.6,1.6,0,0,0,1.5.13l5.36-2.29h0a1.08,1.08,0,0,1,1.14.14c.85.71,1.76,1.53,2.81,2.56s1.88,2,2.6,2.86h0a1.06,1.06,0,0,1,.12,1.12L80.1,25.65a1.58,1.58,0,0,0,.13,1.49A38,38,0,0,1,85.55,40a1.61,1.61,0,0,0,1,1.16l5.4,2.15a1.12,1.12,0,0,1,.71.89v0A37.36,37.36,0,0,1,92.8,48a37.94,37.94,0,0,1-.17,3.84Z" fill="#37b3af"/><path d="M48,64a8.86,8.86,0,0,0-5.86,2,1.64,1.64,0,0,0-.54,1.11,1.6,1.6,0,0,0,2.66,1.29,6.47,6.47,0,0,1,7.48,0A1.6,1.6,0,1,0,53.86,66,8.86,8.86,0,0,0,48,64Z" fill="#37b3af"/></svg>