<svg xmlns="http://www.w3.org/2000/svg" viewBox="0 0 64 52.05"><path d="M63.37,19.34l-.16-1.27L62,17.91a32.33,32.33,0,0,0-16,1.27A32.58,32.58,0,0,0,37.42,4.44,53.43,53.43,0,0,0,33,.63L31.9,0,30.8.79A26.17,26.17,0,0,0,26.4,4.6a33.39,33.39,0,0,0-7.86,12.68,30.15,30.15,0,0,1,3.3,1.43A28.43,28.43,0,0,1,28.91,7.13a24.19,24.19,0,0,1,3-2.53c1.11.79,2,1.74,3,2.53a29,29,0,0,1,7.7,13.64A32.16,32.16,0,0,0,31.9,29a32,32,0,0,0-30-11.1l-1.26.16L.48,19.33A35.86,35.86,0,0,0,0,25,31.85,31.85,0,0,0,14.45,52l2-3A28.8,28.8,0,0,1,3.59,25.05,26.31,26.31,0,0,1,3.9,21.4a29.3,29.3,0,0,1,3.62-.31,29.51,29.51,0,0,1,9.76,1.74,34,34,0,0,0,9.12,29l2.51-2.53a32.16,32.16,0,0,1-6.6-10.14H41.5A29.68,29.68,0,0,1,34.9,49.3l2.52,2.54a33.25,33.25,0,0,0,9.43-26.79,14,14,0,0,0-3.46,1.74,32.78,32.78,0,0,1-.79,8.72H21.21a29.24,29.24,0,0,1-.63-11.1A28.75,28.75,0,0,1,30.49,33l.15.31h2.53l.16-.31A28.49,28.49,0,0,1,56.45,21.09a27.48,27.48,0,0,1,3.62.31,31.9,31.9,0,0,1,.31,3.65,28.6,28.6,0,0,1-12.9,24l2,3A32.26,32.26,0,0,0,64,25.05,23.86,23.86,0,0,0,63.37,19.34Z"/></svg>
