<svg xmlns="http://www.w3.org/2000/svg" width="64" height="64" viewBox="0 0 64 64"><path d="M45.33,58.67H18.67a2,2,0,0,1,0-4H45.33a2,2,0,0,1,0,4Z" fill="#37b3af"/><path d="M54.27,14.72,43.6,22.35a2.68,2.68,0,0,1-4.05-1.23l-5-13.44a2.66,2.66,0,0,0-5,0L24.45,21.09a2.62,2.62,0,0,1-4,1.23L9.76,14.69a2.69,2.69,0,0,0-4.08,3.1L16.77,48.85a2.65,2.65,0,0,0,2.51,1.76H44.69a2.68,2.68,0,0,0,2.51-1.76L58.29,17.79A2.64,2.64,0,0,0,54.27,14.72ZM38.67,39.33H25.33a2,2,0,0,1,0-4H38.67a2,2,0,0,1,0,4Z" fill="#37b3af"/></svg>
