<svg xmlns="http://www.w3.org/2000/svg" width="65" height="64" viewBox="0 0 65 64"><path d="M38.62,4.58A78.39,78.39,0,0,1,49.78,17.93c3.85,6.13,5.72,12.13,5.72,18.35A23.3,23.3,0,0,1,55,41.16H49.5l-2.26-4.81a2.34,2.34,0,0,0-2.09-1.3,2.24,2.24,0,0,0-2,1.36l-4.19,9.67L36.43,42a2.2,2.2,0,0,0-1.92-1.08H32.42l-2.78-6a2.2,2.2,0,0,0-2.15-1.3,2.24,2.24,0,0,0-2,1.52l-2.61,7.42-3-3.29a2.44,2.44,0,0,0-1.69-.73v0H9.62a22.58,22.58,0,0,1-.12-2.33c0-5.77,2.47-12.42,7.34-19.76a2.09,2.09,0,0,1,.55-.56,2,2,0,0,1,.72-.3,2.1,2.1,0,0,1,.79,0,2,2,0,0,1,.72.3l8.07,5.38L35.4,5.14a1.93,1.93,0,0,1,.6-.73A1.85,1.85,0,0,1,36.87,4a2,2,0,0,1,.94.06A2.18,2.18,0,0,1,38.62,4.58Z" fill="#37b3af"/><path d="M32.5,59.28A23,23,0,0,1,10.21,42h7.44l3.9,4.36A2.34,2.34,0,0,0,23.7,47a2.37,2.37,0,0,0,1.7-1.47L27.72,39l1.92,4.13a2.18,2.18,0,0,0,2,1.31h2.15l3.28,5.43A2.21,2.21,0,0,0,39,50.89h.16a2.22,2.22,0,0,0,1.93-1.36L45.2,40.2l1.47,3.17a2.25,2.25,0,0,0,2,1.3h5.21A23,23,0,0,1,32.5,59.28Z" fill="#37b3af"/></svg>
