<svg width="48" height="48" viewBox="0 0 48 48" fill="none" xmlns="http://www.w3.org/2000/svg">
<rect x="0.5" y="0.5" width="47" height="47" rx="15.5" fill="#37B3AF"/>
<path d="M36 38.3335H12C11.4533 38.3335 11 37.8802 11 37.3335C11 36.7868 11.4533 36.3335 12 36.3335H36C36.5467 36.3335 37 36.7868 37 37.3335C37 37.8802 36.5467 38.3335 36 38.3335Z" fill="white"/>
<path d="M15.4667 19.1733H13.3333C12.6 19.1733 12 19.7733 12 20.5067V32C12 32.7333 12.6 33.3333 13.3333 33.3333H15.4667C16.2 33.3333 16.8 32.7333 16.8 32V20.5067C16.8 19.76 16.2 19.1733 15.4667 19.1733Z" fill="white"/>
<path d="M25.0668 14.9199H22.9334C22.2001 14.9199 21.6001 15.5199 21.6001 16.2533V31.9999C21.6001 32.7333 22.2001 33.3333 22.9334 33.3333H25.0668C25.8001 33.3333 26.4001 32.7333 26.4001 31.9999V16.2533C26.4001 15.5199 25.8001 14.9199 25.0668 14.9199Z" fill="white"/>
<path d="M34.6669 10.6665H32.5335C31.8002 10.6665 31.2002 11.2665 31.2002 11.9998V31.9998C31.2002 32.7332 31.8002 33.3332 32.5335 33.3332H34.6669C35.4002 33.3332 36.0002 32.7332 36.0002 31.9998V11.9998C36.0002 11.2665 35.4002 10.6665 34.6669 10.6665Z" fill="white"/>
<rect x="0.5" y="0.5" width="47" height="47" rx="15.5" stroke="#37B3AF"/>
</svg>
