<svg xmlns="http://www.w3.org/2000/svg" viewBox="0 0 270 223.02"><path id="icon" d="M152.1,46.1l-.4-3-3-.4a78,78,0,0,0-38.5,3A77.74,77.74,0,0,0,89.8,10.6,133.08,133.08,0,0,0,79.2,1.5L76.6,0,74,1.9A61.34,61.34,0,0,0,63.4,11,80.54,80.54,0,0,0,44.5,41.2a67.13,67.13,0,0,1,7.9,3.4A68.29,68.29,0,0,1,69.4,17a46,46,0,0,1,7.2-6c2.6,1.9,4.9,4.2,7.2,6a68.84,68.84,0,0,1,18.5,32.5A76.53,76.53,0,0,0,76.6,69.1,77,77,0,0,0,4.5,42.7l-3,.4-.4,3A88.43,88.43,0,0,0,0,59.6a75.76,75.76,0,0,0,34.7,64.2l4.9-7.2a68.4,68.4,0,0,1-31-57,59,59,0,0,1,.8-8.7,68.61,68.61,0,0,1,8.7-.8,69.71,69.71,0,0,1,23.4,4.2,80.62,80.62,0,0,0,21.9,69.1l6-6c-7.2-7.2-12.1-15.5-15.9-24.2H99.6a70.49,70.49,0,0,1-15.9,24.2l6,6a78.53,78.53,0,0,0,22.6-63.8,32.42,32.42,0,0,0-8.3,4.2,77.39,77.39,0,0,1-1.9,20.8H51a69.28,69.28,0,0,1-1.5-26.4A68.52,68.52,0,0,1,73.3,78.6l.4.8h6l.4-.8a68.74,68.74,0,0,1,55.5-28.3,65.13,65.13,0,0,1,8.7.8,68.61,68.61,0,0,1,.8,8.7,68,68,0,0,1-31,57L119,124a76.53,76.53,0,0,0,34.7-64.2A57,57,0,0,0,152.1,46.1Z" /><g id="text"><polygon points="13.3 161.7 21.6 175.7 23.8 175.7 32.1 161.7 32.1 178.3 36.3 178.3 36.3 152.7 32.5 152.7 22.7 169.6 12.5 152.7 8.7 152.7 8.7 178.3 13.3 178.3 13.3 161.7"/><path d="M46.5,177.2a12.16,12.16,0,0,0,5.7,1.1,17.65,17.65,0,0,0,4.5-.8,5.5,5.5,0,0,0,3.4-2.3l-2.3-2.6a6.86,6.86,0,0,1-5.3,2.3,8.58,8.58,0,0,1-4.2-1.1,6,6,0,0,1-2.3-3.4H61.5v-1.1a12.91,12.91,0,0,0-1.1-5.3,8,8,0,0,0-3.4-3.4,11.53,11.53,0,0,0-5.3-1.1,12.91,12.91,0,0,0-5.3,1.1,7.15,7.15,0,0,0-3.8,3.4,11.53,11.53,0,0,0-1.1,5.3,9.28,9.28,0,0,0,1.1,4.5A9.86,9.86,0,0,0,46.5,177.2ZM48,164a5.71,5.71,0,0,1,3.4-1.1,7,7,0,0,1,3.8,1.1,5.43,5.43,0,0,1,1.9,3.4h-11C46.5,165.9,46.9,164.7,48,164Z" /><path d="M80.8,168.5v10.6h4.5V167.8c0-3-.8-4.9-2.3-6.4a7.75,7.75,0,0,0-5.7-2.3,11,11,0,0,0-3.8.8,7.72,7.72,0,0,0-3,1.9v-1.9H66v19.6h4.5v-9.8a6,6,0,0,1,1.5-4.5,5.7,5.7,0,0,1,4.2-1.5,5,5,0,0,1,3.4,1.1C80.4,165.5,80.8,166.6,80.8,168.5Z" /><path d="M101.6,175.3a5.32,5.32,0,0,1-2.6.8,2.78,2.78,0,0,1-1.9-.8,4,4,0,0,1-.8-2.3v-9.4h5.3v-3.8H96.3v-4.5H91.8v4.5H88.4v3.8h3.4V173a6.53,6.53,0,0,0,1.9,4.9c1.1,1.1,2.6,1.5,4.9,1.5a4.66,4.66,0,0,0,2.3-.4,13.8,13.8,0,0,0,1.9-1.1Z" /><path d="M114,158.7a17.65,17.65,0,0,0-4.5.8,12.32,12.32,0,0,0-3.8,1.9l1.9,3.8a6.13,6.13,0,0,1,2.6-1.5,10,10,0,0,1,3.4-.4,5.36,5.36,0,0,1,3.8,1.1,3.48,3.48,0,0,1,1.1,3v.4h-4.9c-2.6,0-4.9.4-6,1.5a5.58,5.58,0,0,0-1.9,4.2c0,1.1,0,2.3.8,3a5.69,5.69,0,0,0,2.6,2.3,10.6,10.6,0,0,0,3.8.8,11,11,0,0,0,3.8-.8,5.32,5.32,0,0,0,2.3-1.9v2.3h4.2V167.9c0-3-.8-4.9-2.3-6.4S117.1,159.1,114,158.7Zm4.7,14h-.1a4.08,4.08,0,0,1-1.9,2.3,4.83,4.83,0,0,1-3,.8,5,5,0,0,1-2.6-.8,2,2,0,0,1-1.1-1.9c0-1.9,1.1-2.6,3.8-2.6h4.9Z" /><rect x="128.8" y="151.5" width="4.5" height="27.2"/><polygon points="154.8 168.1 167.6 168.1 167.6 179.1 172.6 179.1 172.6 153.4 168 153.4 168 164 154.8 164 154.8 153.4 149.9 153.4 149.9 179.1 154.8 179.1 154.8 168.1"/><path d="M192.9,160.6a11.53,11.53,0,0,0-5.3-1.1,12.91,12.91,0,0,0-5.3,1.1,7.15,7.15,0,0,0-3.8,3.4,11.53,11.53,0,0,0-1.1,5.3,8.27,8.27,0,0,0,1.1,4.5,8.93,8.93,0,0,0,3.8,3.4,12.16,12.16,0,0,0,5.7,1.1,17.65,17.65,0,0,0,4.5-.8,5.5,5.5,0,0,0,3.4-2.3l-2.3-2.6a6.86,6.86,0,0,1-5.3,2.3,8.58,8.58,0,0,1-4.2-1.1,6,6,0,0,1-2.3-3.4h15.5v-1.1a12.91,12.91,0,0,0-1.1-5.3A6.45,6.45,0,0,0,192.9,160.6ZM182,167.4a5.43,5.43,0,0,1,1.9-3.4,5.71,5.71,0,0,1,3.4-1.1,7,7,0,0,1,3.8,1.1,5.43,5.43,0,0,1,1.9,3.4Z" /><path d="M208.8,159.1a17.65,17.65,0,0,0-4.5.8,12.32,12.32,0,0,0-3.8,1.9l1.9,3.4a6.13,6.13,0,0,1,2.6-1.5,10,10,0,0,1,3.4-.4,5.36,5.36,0,0,1,3.8,1.1,3.48,3.48,0,0,1,1.1,3v.4h-4.9c-2.6,0-4.9.4-6,1.5a5.58,5.58,0,0,0-1.9,4.2c0,1.1,0,2.3.8,3a5.69,5.69,0,0,0,2.6,2.3,10.6,10.6,0,0,0,3.8.8,11,11,0,0,0,3.8-.8,5.32,5.32,0,0,0,2.3-1.9v2.3H218V167.9c0-3-.8-4.9-2.3-6.4A9.58,9.58,0,0,0,208.8,159.1Zm4.6,13.6h-.1a4.08,4.08,0,0,1-1.9,2.3,4.3,4.3,0,0,1-3,.8,5,5,0,0,1-2.6-.8,2,2,0,0,1-1.1-1.9c0-1.9,1.1-2.6,3.8-2.6h4.9Z" /><rect x="223.5" y="151.5" width="4.5" height="27.2"/><path d="M243.1,176.1a2.78,2.78,0,0,1-1.9-.8,4,4,0,0,1-.8-2.3v-9.4h5.3v-3.8h-5.3v-4.5h-4.5v4.5h-3.4v3.8h3.4V173a6.53,6.53,0,0,0,1.9,4.9c1.1,1.1,2.6,1.5,4.9,1.5a4.66,4.66,0,0,0,2.3-.4,13.8,13.8,0,0,0,1.9-1.1l-1.1-2.6A5.35,5.35,0,0,1,243.1,176.1Z" /><path d="M267.7,161.3a8,8,0,0,0-6-2.3,11,11,0,0,0-3.8.8,6.3,6.3,0,0,0-2.6,1.9v-9.4h-4.5v27.2h4.5v-9.8a6,6,0,0,1,1.5-4.5,5.7,5.7,0,0,1,4.2-1.5,4.78,4.78,0,0,1,3.4,1.1c.8.8,1.1,1.9,1.1,3.8v10.6H270V167.9C269.9,164.7,269.2,162.9,267.7,161.3Z" /><path d="M16.7,190,5,215.7H9.9l2.6-6H25.3l2.6,6h4.9L21.1,190ZM14,205.9l4.9-11.3,4.9,11.3Z" /><path d="M44.6,199.5a4,4,0,0,1,2.6,1.1,4.08,4.08,0,0,1,2.3,1.9l3.4-1.9a8,8,0,0,0-3.4-3.4,8.91,8.91,0,0,0-4.9-1.1,13.45,13.45,0,0,0-5.7,1.1,9.51,9.51,0,0,0-5.3,8.7,13.13,13.13,0,0,0,1.5,5.3,8.93,8.93,0,0,0,3.8,3.4,9.81,9.81,0,0,0,5.7.8,10.94,10.94,0,0,0,4.9-1.1,7.46,7.46,0,0,0,3.4-3.4L49.5,209a9.55,9.55,0,0,1-2.3,1.9,5.32,5.32,0,0,1-2.6.8,6,6,0,0,1-4.2-1.5,7.5,7.5,0,0,1,0-9C41.6,199.8,42.7,199.5,44.6,199.5Z" /><path d="M64.2,195.7a17.65,17.65,0,0,0-4.5.8,12.32,12.32,0,0,0-3.8,1.9l1.9,3.4a6.13,6.13,0,0,1,2.6-1.5,10,10,0,0,1,3.4-.4,5.36,5.36,0,0,1,3.8,1.1,3.58,3.58,0,0,1,1.1,3v.4H63.8c-2.6,0-4.9.4-6,1.5a5.58,5.58,0,0,0-1.9,4.2c0,1.1,0,2.3.8,3a5.69,5.69,0,0,0,2.6,2.3,10.6,10.6,0,0,0,3.8.8,11,11,0,0,0,3.8-.8,5.32,5.32,0,0,0,2.3-1.9v2.3h4.2V204.5c0-3-.8-4.9-2.3-6.4A9.58,9.58,0,0,0,64.2,195.7Zm4.6,13.6h-.1a4.08,4.08,0,0,1-1.9,2.3,4.83,4.83,0,0,1-3,.8,5,5,0,0,1-2.6-.8,2,2,0,0,1-1.1-1.9c0-1.9,1.1-2.6,3.8-2.6h4.9Z" /><path d="M93.3,198.7a7,7,0,0,0-2.6-1.9,8.91,8.91,0,0,0-3.4-.8,10.94,10.94,0,0,0-4.9,1.1,8,8,0,0,0-3.4,3.4,11.53,11.53,0,0,0-1.1,5.3,12.91,12.91,0,0,0,1.1,5.3,8,8,0,0,0,3.4,3.4,9.92,9.92,0,0,0,4.9,1.1,11,11,0,0,0,3.8-.8,15.35,15.35,0,0,0,2.6-2.3v2.6h4.5V187.9H93.3Zm0,10.2a7.22,7.22,0,0,1-2.3,2.3,7,7,0,0,1-3,.8,6.68,6.68,0,0,1-3-.8,7.22,7.22,0,0,1-2.3-2.3,8.52,8.52,0,0,1-.8-3.4,7.43,7.43,0,0,1,.8-3.4,7.22,7.22,0,0,1,2.3-2.3,7,7,0,0,1,3-.8,6.68,6.68,0,0,1,3,.8,7.22,7.22,0,0,1,2.3,2.3,8.52,8.52,0,0,1,.8,3.4A8.91,8.91,0,0,1,93.3,208.9Z" /><path d="M121.2,199.8a8,8,0,0,0-3.4-3.4,11.4,11.4,0,0,0-5.3-1.1,12.91,12.91,0,0,0-5.3,1.1,7.15,7.15,0,0,0-3.8,3.4,11.4,11.4,0,0,0-1.1,5.3,13.13,13.13,0,0,0,1.5,5.3,8.36,8.36,0,0,0,3.8,3.4,12.16,12.16,0,0,0,5.7,1.1,17.65,17.65,0,0,0,4.5-.8,5.5,5.5,0,0,0,3.4-2.3l-2.3-2.6a6.86,6.86,0,0,1-5.3,2.3,8.58,8.58,0,0,1-4.2-1.1,6,6,0,0,1-2.3-3.4h15.5c.1-.4.1-.7-.3-1.9A12.91,12.91,0,0,0,121.2,199.8ZM107.3,204a5.43,5.43,0,0,1,1.9-3.4,5.71,5.71,0,0,1,3.4-1.1,7,7,0,0,1,3.8,1.1,5.43,5.43,0,0,1,1.9,3.4Z" /><path d="M151.4,196.4a7.45,7.45,0,0,0-4.2.8,5.55,5.55,0,0,0-3,2.3c-.8-.8-1.5-1.9-2.6-2.3a10.6,10.6,0,0,0-3.8-.8,11,11,0,0,0-3.8.8,6.3,6.3,0,0,0-2.6,1.9v-2.6h-4.5v19.6h4.5v-9.8a7.24,7.24,0,0,1,1.5-4.5,5.66,5.66,0,0,1,7.2-.4c.8.7,1.1,1.9,1.1,3.8v10.6h4.5V206a8.8,8.8,0,0,1,1.5-4.2,5.66,5.66,0,0,1,7.2-.4c.8.7,1.1,1.9,1.1,3.8v10.6H160V204.5c0-3-.8-4.9-2.3-6.4C156.3,196.4,154.4,195.7,151.4,196.4Z" /><path d="M172.9,210.4l-6-14.3H162l8.7,19.6-.4.8a6.5,6.5,0,0,1-1.5,2.3,2.78,2.78,0,0,1-1.9.8,3.31,3.31,0,0,1-1.9-.4,14.41,14.41,0,0,0-1.5-1.1l-1.9,3.4a5,5,0,0,0,2.3,1.1,7.81,7.81,0,0,0,3,.4,8.27,8.27,0,0,0,4.5-1.1,8.83,8.83,0,0,0,3-4.5l9.1-21.1H179Z" /></g></svg>
