<svg xmlns="http://www.w3.org/2000/svg" viewBox="0 0 154 124" fill="#ffffff"><path d="M152.4,46.1l-.4-3-3-.4a78.35,78.35,0,0,0-38.57,3A77.76,77.76,0,0,0,90,10.6,133.83,133.83,0,0,0,79.35,1.5L76.75,0,74.14,1.9A61.91,61.91,0,0,0,63.52,11,80.45,80.45,0,0,0,44.59,41.2a67.29,67.29,0,0,1,7.91,3.4,68.37,68.37,0,0,1,17-27.6,45.48,45.48,0,0,1,7.21-6c2.6,1.9,4.91,4.2,7.21,6A68.85,68.85,0,0,1,102.5,49.5,76.67,76.67,0,0,0,76.75,69.1,77.18,77.18,0,0,0,4.51,42.7l-3,.4-.4,3A87.78,87.78,0,0,0,0,59.6a75.72,75.72,0,0,0,34.77,64.2l4.91-7.2a68.34,68.34,0,0,1-31.06-57,59.81,59.81,0,0,1,.8-8.7,68.76,68.76,0,0,1,8.72-.8,69.8,69.8,0,0,1,23.44,4.2,80.51,80.51,0,0,0,21.94,69.1l6-6c-7.22-7.2-12.13-15.5-15.94-24.2H99.79a70.4,70.4,0,0,1-15.93,24.2l6,6a78.46,78.46,0,0,0,22.64-63.8,32.54,32.54,0,0,0-8.32,4.2,77.21,77.21,0,0,1-1.9,20.8H51.1a69.1,69.1,0,0,1-1.5-26.4A68.74,68.74,0,0,1,73.44,78.6l.4.8h6l.4-.8a68.89,68.89,0,0,1,55.6-28.3,64.09,64.09,0,0,1,8.72.8,68.62,68.62,0,0,1,.8,8.7,68,68,0,0,1-31.06,57l4.91,7.2A76.49,76.49,0,0,0,154,59.8,57,57,0,0,0,152.4,46.1Z"/></svg>
