<svg width="48" height="48" viewBox="0 0 48 48" fill="none" xmlns="http://www.w3.org/2000/svg">
<rect x="0.5" y="0.5" width="47" height="47" rx="15.5" fill="#37B3AF"/>
<path d="M31.3734 18.3598C31.2801 18.3465 31.1867 18.3465 31.0934 18.3598C29.0267 18.2932 27.3867 16.5998 27.3867 14.5198C27.3867 12.3998 29.1067 10.6665 31.2401 10.6665C33.3601 10.6665 35.0934 12.3865 35.0934 14.5198C35.0801 16.5998 33.4401 18.2932 31.3734 18.3598Z" fill="white"/>
<path d="M35.72 27.6C34.2266 28.6 32.1333 28.9734 30.2 28.72C30.7066 27.6267 30.9733 26.4134 30.9866 25.1334C30.9866 23.8001 30.6933 22.5334 30.1333 21.4267C32.1066 21.16 34.2 21.5334 35.7066 22.5334C37.8133 23.92 37.8133 26.2 35.72 27.6Z" fill="white"/>
<path d="M16.5865 18.3598C16.6799 18.3465 16.7732 18.3465 16.8665 18.3598C18.9332 18.2932 20.5732 16.5998 20.5732 14.5198C20.5732 12.3865 18.8532 10.6665 16.7199 10.6665C14.5999 10.6665 12.8799 12.3865 12.8799 14.5198C12.8799 16.5998 14.5199 18.2932 16.5865 18.3598Z" fill="white"/>
<path d="M16.7335 25.1331C16.7335 26.4265 17.0135 27.6531 17.5202 28.7598C15.6402 28.9598 13.6802 28.5598 12.2402 27.6131C10.1335 26.2131 10.1335 23.9331 12.2402 22.5331C13.6668 21.5731 15.6802 21.1865 17.5735 21.3998C17.0268 22.5198 16.7335 23.7865 16.7335 25.1331Z" fill="white"/>
<path d="M24.1599 29.16C24.0532 29.1467 23.9332 29.1467 23.8132 29.16C21.3599 29.08 19.3999 27.0667 19.3999 24.5867C19.4132 22.0533 21.4532 20 23.9999 20C26.5332 20 28.5866 22.0533 28.5866 24.5867C28.5732 27.0667 26.6266 29.08 24.1599 29.16Z" fill="white"/>
<path d="M19.8269 31.92C17.8136 33.2667 17.8136 35.48 19.8269 36.8134C22.1202 38.3467 25.8802 38.3467 28.1736 36.8134C30.1869 35.4667 30.1869 33.2534 28.1736 31.92C25.8936 30.3867 22.1336 30.3867 19.8269 31.92Z" fill="white"/>
<rect x="0.5" y="0.5" width="47" height="47" rx="15.5" stroke="#37B3AF"/>
</svg>
