<svg width="48" height="48" viewBox="0 0 48 48" fill="none" xmlns="http://www.w3.org/2000/svg">
<rect x="0.5" y="0.5" width="47" height="47" rx="15.5" fill="#37B3AF"/>
<path d="M30.9332 24.5332C27.3999 24.5332 24.5332 27.3999 24.5332 30.9332C24.5332 32.1332 24.8665 33.2665 25.4665 34.2265C26.5732 36.0799 28.5999 37.3332 30.9332 37.3332C33.2665 37.3332 35.3065 36.0799 36.3999 34.2265C36.9865 33.2665 37.3332 32.1332 37.3332 30.9332C37.3332 27.3999 34.4665 24.5332 30.9332 24.5332ZM34.1065 30.0932L30.6932 33.2399C30.5065 33.4132 30.2532 33.5065 30.0132 33.5065C29.7599 33.5065 29.5065 33.4132 29.3065 33.2132L27.7332 31.6399C27.3465 31.2532 27.3465 30.6132 27.7332 30.2265C28.1199 29.8399 28.7599 29.8399 29.1465 30.2265L30.0399 31.1199L32.7465 28.6132C33.1465 28.2399 33.7865 28.2665 34.1599 28.6665C34.5332 29.0799 34.5065 29.7199 34.1065 30.0932Z" fill="white"/>
<path d="M37.3332 19.6399C37.3332 21.2265 37.0798 22.6932 36.6398 24.0532C36.5598 24.3332 36.2265 24.4132 35.9865 24.2399C34.5332 23.1599 32.7598 22.5865 30.9332 22.5865C26.3065 22.5865 22.5332 26.3599 22.5332 30.9865C22.5332 32.4265 22.9065 33.8399 23.6132 35.0932C23.8265 35.4665 23.5732 35.9465 23.1732 35.7999C19.9598 34.7065 13.4665 30.7199 11.3598 24.0532C10.9198 22.6932 10.6665 21.2265 10.6665 19.6399C10.6665 15.5199 13.9865 12.1865 18.0798 12.1865C20.4932 12.1865 22.6532 13.3599 23.9998 15.1599C25.3465 13.3599 27.5065 12.1865 29.9198 12.1865C34.0132 12.1865 37.3332 15.5199 37.3332 19.6399Z" fill="white"/>
<rect x="0.5" y="0.5" width="47" height="47" rx="15.5" stroke="#37B3AF"/>
</svg>
