<svg xmlns="http://www.w3.org/2000/svg" width="10.97" height="8.02" viewBox="0 0 10.97 8.02"><path d="M4.5,7.76l6.21-6.22a1,1,0,0,0,.19-.29A1,1,0,0,0,11,.91a1,1,0,0,0-.06-.34,1.05,1.05,0,0,0-.17-.29.91.91,0,0,0-.24-.2A.71.71,0,0,0,10.18,0a.59.59,0,0,0-.32.06.75.75,0,0,0-.28.18L4,5.89,1.43,3.39a.75.75,0,0,0-.28-.18.59.59,0,0,0-.32-.06.75.75,0,0,0-.33,0,1.05,1.05,0,0,0-.27.2,1.05,1.05,0,0,0-.17.29A1,1,0,0,0,0,4a.89.89,0,0,0,.07.36,1,1,0,0,0,.19.29l3.1,3.11A.82.82,0,0,0,4,8,.79.79,0,0,0,4.5,7.76Z" transform="translate(0 -0.01)" fill-rule="evenodd"/></svg>