<svg xmlns="http://www.w3.org/2000/svg" xmlns:xlink="http://www.w3.org/1999/xlink" style="display:none"><symbol id="24-support"><path d="M18 2H6a3 3 0 0 0-3 3v10.88a3 3 0 0 0 3 3h.76a3 3 0 0 1 2.12.87l1.71 1.69a2 2 0 0 0 2.83 0l1.71-1.69a3 3 0 0 1 2.12-.87H18a3 3 0 0 0 3-3V5a3 3 0 0 0-3-3Zm-7.62 11a.75.75 0 0 1 0 1.5H7.7a1.36 1.36 0 0 1-1.11-.57 1.3 1.3 0 0 1-.19-1.16 4.37 4.37 0 0 1 2-2.17c.8-.54 1.25-.88 1.25-1.46a.94.94 0 1 0-1.87 0 .75.75 0 0 1-1.5 0 2.44 2.44 0 0 1 4.88 0c0 1.41-1.06 2.13-1.91 2.71A3.92 3.92 0 0 0 7.94 13h2.44Zm6.62.07h-.21v.69a.75.75 0 0 1-1.5 0v-.69h-2a1.39 1.39 0 0 1-1.19-.68 1.36 1.36 0 0 1 0-1.38c.68-1.17 1.47-2.5 2.19-3.66a1.33 1.33 0 0 1 2.46.71v3.52H17a.76.76 0 0 1 .75.75.75.75 0 0 1-.75.75Z"/><path d="M15.29 11.58V8.64c-.59 1-1.2 2-1.75 2.93h1.75Z"/></symbol><symbol id="arrow-down"><path d="M12 16.8a2.72 2.72 0 0 1-1.93-.8L3.55 9.48a.75.75 0 1 1 1.06-1.06l6.52 6.52a1.27 1.27 0 0 0 1.74 0l6.52-6.52a.75.75 0 1 1 1.06 1.06L13.93 16a2.72 2.72 0 0 1-1.93.8Z"/></symbol><symbol id="arrow-left"><path d="M15 20.67a.74.74 0 0 1-.53-.22L8 13.93a2.74 2.74 0 0 1 0-3.86l6.52-6.52a.75.75 0 0 1 1.06 1.06L9 11.13a1.23 1.23 0 0 0 0 1.74l6.52 6.52a.75.75 0 0 1 0 1.06.74.74 0 0 1-.52.22Z"/></symbol><symbol id="arrow-right"><path d="M8.91 20.67a.74.74 0 0 1-.53-.22.75.75 0 0 1 0-1.06l6.52-6.52a1.23 1.23 0 0 0 0-1.74L8.38 4.61a.75.75 0 0 1 1.06-1.06L16 10.07a2.74 2.74 0 0 1 0 3.86l-6.56 6.52a.74.74 0 0 1-.53.22Z"/></symbol><symbol id="arrow-up"><path d="M19.92 15.8a.74.74 0 0 1-.53-.22l-6.52-6.52a1.23 1.23 0 0 0-1.74 0l-6.52 6.52a.75.75 0 1 1-1.06-1.06L10.07 8a2.74 2.74 0 0 1 3.86 0l6.52 6.52a.75.75 0 0 1 0 1.06.74.74 0 0 1-.53.22Z"/></symbol><symbol id="asterisk"><path d="m2.34 6 .26-2.29L.7 5.08 0 3.88l2.18-.94L0 2.06.7.86l1.9 1.42L2.34 0h1.33l-.26 2.28L5.32.91 6 2.11l-2.17.94L6 4l-.68 1.1-1.91-1.39L3.67 6Z"/></symbol><symbol id="call"><path d="M11.05 15 9.2 16.8a1 1 0 0 1-1.41 0l-.33-.32a28.41 28.41 0 0 1-2.79-3.27 17.83 17.83 0 0 1-2-3.41A8.59 8.59 0 0 1 2 6.54a5.17 5.17 0 0 1 .36-1.93 4.6 4.6 0 0 1 1.15-1.67A2.93 2.93 0 0 1 5.59 2a1.88 1.88 0 0 1 .81.18 1.63 1.63 0 0 1 .67.56L9.39 6a3.42 3.42 0 0 1 .4.7 1.58 1.58 0 0 1 .14.61 1.36 1.36 0 0 1-.21.69 3.4 3.4 0 0 1-.56.71l-.76.79a.54.54 0 0 0-.16.4.91.91 0 0 0 0 .23l.08.2a8.3 8.3 0 0 0 .93 1.28c.45.52.93 1 1.45 1.58l.31.3a1 1 0 0 1 .04 1.51ZM22 18.33a2.54 2.54 0 0 1-.15.85 2.44 2.44 0 0 1-.1.24 4.13 4.13 0 0 1-.68 1 4.51 4.51 0 0 1-1.64 1.18 5.05 5.05 0 0 1-1.92.37 8.33 8.33 0 0 1-3.26-.73 17.56 17.56 0 0 1-3.44-2c-.39-.29-.78-.58-1.15-.89l3.27-3.27a5.62 5.62 0 0 0 .74.48l.18.08a.69.69 0 0 0 .25 0 .55.55 0 0 0 .41-.17l.76-.75a3.07 3.07 0 0 1 .72-.56 1.33 1.33 0 0 1 .71-.21 1.6 1.6 0 0 1 .61.13 3.87 3.87 0 0 1 .7.39l3.31 2.35a1.52 1.52 0 0 1 .55.64 2.05 2.05 0 0 1 .13.87Z"/></symbol><symbol id="category"><path d="M7.24 2h-1.9A3 3 0 0 0 2 5.33v1.9a3 3 0 0 0 3.33 3.33h1.9a3 3 0 0 0 3.33-3.33v-1.9A3 3 0 0 0 7.24 2ZM18.67 2h-1.9a3 3 0 0 0-3.33 3.33v1.9a3 3 0 0 0 3.33 3.33h1.9A3 3 0 0 0 22 7.23v-1.9A3 3 0 0 0 18.67 2ZM18.67 13.43h-1.9a3 3 0 0 0-3.33 3.33v1.9A3 3 0 0 0 16.77 22h1.9A3 3 0 0 0 22 18.66v-1.9a3 3 0 0 0-3.33-3.33ZM7.24 13.43h-1.9A3 3 0 0 0 2 16.76v1.9A3 3 0 0 0 5.33 22h1.9a3 3 0 0 0 3.33-3.33v-1.9a3 3 0 0 0-3.32-3.34Z"/></symbol><symbol id="chart"><path d="M21 22.75H3a.75.75 0 0 1 0-1.5h18a.75.75 0 0 1 0 1.5ZM5.6 8.38H4a1 1 0 0 0-1 1V18a1 1 0 0 0 1 1h1.6a1 1 0 0 0 1-1V9.38a1 1 0 0 0-1-1ZM12.8 5.19h-1.6a1 1 0 0 0-1 1V18a1 1 0 0 0 1 1h1.6a1 1 0 0 0 1-1V6.19a1 1 0 0 0-1-1ZM20 2h-1.6a1 1 0 0 0-1 1v15a1 1 0 0 0 1 1H20a1 1 0 0 0 1-1V3a1 1 0 0 0-1-1Z"/></symbol><symbol id="check-mark"><path d="m4.5 7.75 6.21-6.22a1 1 0 0 0 .19-.29A1 1 0 0 0 11 .9a1 1 0 0 0-.06-.34 1.05 1.05 0 0 0-.17-.29.91.91 0 0 0-.24-.2.71.71 0 0 0-.35-.08.59.59 0 0 0-.32.06.75.75 0 0 0-.28.18L4 5.88l-2.57-2.5a.75.75 0 0 0-.28-.18.59.59 0 0 0-.32-.06.75.75 0 0 0-.33 0 1.05 1.05 0 0 0-.27.2 1.05 1.05 0 0 0-.17.29 1 1 0 0 0-.06.36.89.89 0 0 0 .07.36 1 1 0 0 0 .19.29l3.1 3.11a.82.82 0 0 0 .64.24.79.79 0 0 0 .5-.24Z" fill-rule="evenodd"/></symbol><symbol id="close-square"><path d="M16.19 2H7.81C4.17 2 2 4.17 2 7.81v8.37C2 19.83 4.17 22 7.81 22h8.37c3.64 0 5.82-2.17 5.82-5.81V7.81C22 4.17 19.83 2 16.19 2Zm-.83 12.3a.75.75 0 0 1 0 1.06.75.75 0 0 1-1.06 0l-2.3-2.3-2.3 2.3a.75.75 0 0 1-1.06 0 .75.75 0 0 1 0-1.06l2.3-2.3-2.3-2.3A.75.75 0 0 1 9.7 8.64l2.3 2.3 2.3-2.3a.75.75 0 0 1 1.06 1.06l-2.3 2.3Z"/></symbol><symbol id="close"><path d="m13.12 12 6.65-6.65a.79.79 0 1 0-1.12-1.12L12 10.88 5.35 4.23a.79.79 0 0 0-1.12 1.12L10.88 12l-6.65 6.65a.79.79 0 0 0 0 1.12.82.82 0 0 0 .56.23.8.8 0 0 0 .56-.23L12 13.12l6.65 6.65a.8.8 0 0 0 .56.23.82.82 0 0 0 .56-.23.79.79 0 0 0 0-1.12Z"/></symbol><symbol id="crown"><path d="M17 22H7a.75.75 0 0 1 0-1.5h10a.75.75 0 0 1 0 1.5ZM20.35 5.52l-4 2.86a1 1 0 0 1-1.52-.46l-1.89-5a1 1 0 0 0-1.87 0l-1.9 5a1 1 0 0 1-1.51.46l-4-2.86a1 1 0 0 0-1.53 1.15l4.16 11.65a1 1 0 0 0 .94.66h9.53a1 1 0 0 0 .94-.66l4.16-11.65a1 1 0 0 0-1.51-1.15Zm-5.85 9.23h-5a.75.75 0 0 1 0-1.5h5a.75.75 0 0 1 0 1.5Z"/></symbol><symbol id="edit"><path d="M21 22H3a.75.75 0 0 1 0-1.5h18a.75.75 0 0 1 0 1.5ZM19 3.48c-1.94-1.94-3.84-2-5.83 0L12 4.69a.42.42 0 0 0-.1.4 8.13 8.13 0 0 0 5.53 5.53h.12a.4.4 0 0 0 .29-.12L19 9.31a4.13 4.13 0 0 0 1.47-2.89A4.12 4.12 0 0 0 19 3.48ZM15.61 11.53c-.29-.14-.57-.28-.84-.44s-.43-.27-.64-.42a6 6 0 0 1-.56-.43l-.17-.15a8.46 8.46 0 0 1-1-1 1.22 1.22 0 0 1-.15-.18 5.82 5.82 0 0 1-.42-.55 5.49 5.49 0 0 1-.39-.59c-.16-.27-.3-.54-.44-.82l-.06-.14a.52.52 0 0 0-.84-.17l-5.76 5.69a1.2 1.2 0 0 0-.28.55l-.54 3.83A2 2 0 0 0 4 18.46a2 2 0 0 0 1.4.54 2.19 2.19 0 0 0 .36 0l3.84-.54a1.11 1.11 0 0 0 .55-.28l5.72-5.72a.53.53 0 0 0-.17-.85Z"/></symbol><symbol id="emoji-sad"><path d="M16.19 2H7.81C4.17 2 2 4.17 2 7.81v8.37C2 19.83 4.17 22 7.81 22h8.37c3.64 0 5.82-2.17 5.82-5.81V7.81C22 4.17 19.83 2 16.19 2ZM6.47 9.28a.75.75 0 0 1 0-1.06 3.34 3.34 0 0 1 4.7 0 .75.75 0 0 1 0 1.06.75.75 0 0 1-1.06 0 1.83 1.83 0 0 0-2.58 0 .74.74 0 0 1-1.06 0Zm9.13 8.8H8.4a1.27 1.27 0 0 1-1.27-1.28 4.88 4.88 0 0 1 9.76 0 1.3 1.3 0 0 1-1.29 1.28Zm1.93-8.8a.75.75 0 0 1-1.06 0 1.83 1.83 0 0 0-2.58 0 .75.75 0 0 1-1.06 0 .75.75 0 0 1 0-1.06 3.34 3.34 0 0 1 4.7 0 .75.75 0 0 1 0 1.06Z"/></symbol><symbol id="eye-slash"><path d="M21.27 9.18a14.13 14.13 0 0 0-.92-1.29 1 1 0 0 0-1.49-.09l-3 3a3.92 3.92 0 0 1 .06 2.2 4 4 0 0 1-2.9 2.9 3.92 3.92 0 0 1-2.21-.06l-2.46 2.47A1 1 0 0 0 8.68 20a9.22 9.22 0 0 0 3.32.62 9.68 9.68 0 0 0 5.09-1.49 13.43 13.43 0 0 0 4.23-4.34 5.78 5.78 0 0 0-.05-5.61Z"/><path d="M14.86 12A2.87 2.87 0 0 1 12 14.86a.5.5 0 0 1-.17 0l3-3a.5.5 0 0 1 .03.14ZM21.77 2.23a.77.77 0 0 0-1.09 0l-3.05 3.05A9.79 9.79 0 0 0 12 3.43a9.77 9.77 0 0 0-5.09 1.49 13.35 13.35 0 0 0-4.16 4.23 5.77 5.77 0 0 0 0 5.69 14.54 14.54 0 0 0 2.43 2.9l-2.95 3a.77.77 0 0 0 0 1.09.79.79 0 0 0 .54.22.76.76 0 0 0 .54-.23L21.77 3.31a.74.74 0 0 0 0-1.08Zm-8.38 7.29A2.83 2.83 0 0 0 9.14 12a2.86 2.86 0 0 0 .38 1.39l-.87.88a4 4 0 0 1 5.62-5.62Z"/></symbol><symbol id="eye"><path d="M21.25 9.15C18.94 5.52 15.56 3.43 12 3.43a9.68 9.68 0 0 0-5.09 1.49 13.35 13.35 0 0 0-4.16 4.23 5.77 5.77 0 0 0 0 5.69c2.31 3.64 5.69 5.72 9.25 5.72a9.68 9.68 0 0 0 5.09-1.49 13.35 13.35 0 0 0 4.16-4.23 5.77 5.77 0 0 0 0-5.69ZM12 16a4 4 0 1 1 4-4 4 4 0 0 1-4 4Z"/><path d="M12 9.14A2.86 2.86 0 1 0 14.86 12 2.86 2.86 0 0 0 12 9.14Z"/></symbol><symbol id="facebook"><path d="M22 16.19c0 3.64-2.17 5.81-5.81 5.81H15a1 1 0 0 1-1-1v-5.77a.5.5 0 0 1 .49-.5h1.76a.32.32 0 0 0 .29-.25l.35-1.91a.3.3 0 0 0-.3-.35h-2.13a.51.51 0 0 1-.51-.49V9.28a.3.3 0 0 1 .3-.3h2.4a.29.29 0 0 0 .3-.3v-2.4a.29.29 0 0 0-.3-.3h-2.7a3 3 0 0 0-2.95 3v2.8a.5.5 0 0 1-.49.51h-1.2a.29.29 0 0 0-.3.3v1.9a.29.29 0 0 0 .3.3h1.2a.51.51 0 0 1 .51.49l.09 5.7a1 1 0 0 1-1 1h-2.3C4.17 22 2 19.83 2 16.18V7.81C2 4.17 4.17 2 7.81 2h8.38C19.83 2 22 4.17 22 7.81v8.38Z"/></symbol><symbol id="global"><path d="M7.65 20.91h-.1a10 10 0 0 1-4.49-4.49s0-.07 0-.1a31.89 31.89 0 0 0 3.73.84 33.55 33.55 0 0 0 .86 3.75ZM20.94 16.45A10.09 10.09 0 0 1 16.29 21a30.56 30.56 0 0 0 .91-3.84 31.28 31.28 0 0 0 3.72-.84s.02.1.02.13ZM21 7.71a31.64 31.64 0 0 0-3.8-.91 27.91 27.91 0 0 0-.91-3.8A10.05 10.05 0 0 1 21 7.71ZM7.65 3.09a31.25 31.25 0 0 0-.83 3.72 28.87 28.87 0 0 0-3.82.9 10.09 10.09 0 0 1 4.55-4.65ZM15.49 6.59a31.33 31.33 0 0 0-7 0 28.37 28.37 0 0 1 1-4.06 1.64 1.64 0 0 0 0-.22A10.41 10.41 0 0 1 12 2a10.32 10.32 0 0 1 2.44.31 1.66 1.66 0 0 0 0 .22 28.71 28.71 0 0 1 1.05 4.06ZM6.59 15.49a28 28 0 0 1-4.06-1 1.64 1.64 0 0 0-.22 0A10.41 10.41 0 0 1 2 12a10.32 10.32 0 0 1 .31-2.44h.22a29.77 29.77 0 0 1 4.06-1 32.57 32.57 0 0 0 0 6.93ZM22 12a10.41 10.41 0 0 1-.31 2.45 1.64 1.64 0 0 0-.22 0 30.14 30.14 0 0 1-4.06 1 31.33 31.33 0 0 0 0-7 28.37 28.37 0 0 1 4.06 1 .83.83 0 0 0 .22 0A10.39 10.39 0 0 1 22 12ZM15.49 17.41a28 28 0 0 1-1 4.06 1.66 1.66 0 0 0 0 .22A10.32 10.32 0 0 1 12 22a10.41 10.41 0 0 1-2.45-.31 1.64 1.64 0 0 0 0-.22 29.77 29.77 0 0 1-1-4.06 31.29 31.29 0 0 0 3.49.22 31.14 31.14 0 0 0 3.45-.22ZM15.76 15.76a29.57 29.57 0 0 1-7.52 0 29.57 29.57 0 0 1 0-7.52 29.57 29.57 0 0 1 7.52 0 29.57 29.57 0 0 1 0 7.52Z"/></symbol><symbol id="heart-tick"><path d="M17.2 12.4a4.8 4.8 0 0 0-4.8 4.8 4.65 4.65 0 0 0 .7 2.47 4.79 4.79 0 1 0 4.1-7.27Zm2.38 4.17L17 18.93a.76.76 0 0 1-.51.2.74.74 0 0 1-.53-.22l-1.16-1.18a.75.75 0 0 1 1.06-1.06l.67.67 2-1.88a.76.76 0 0 1 1.06 0 .77.77 0 0 1-.01 1.11Z"/><path d="M22 8.73a10.68 10.68 0 0 1-.52 3.27.31.31 0 0 1-.49.14 6.33 6.33 0 0 0-10.09 5.1 6.27 6.27 0 0 0 .81 3.08c.16.28 0 .64-.33.53C9 20 4.1 17 2.52 12A10.68 10.68 0 0 1 2 8.73a5.55 5.55 0 0 1 10-3.36 5.55 5.55 0 0 1 10 3.36Z"/></symbol><symbol id="home"><path d="m20.86 8.37-6.93-5.54a3.23 3.23 0 0 0-3.86 0L3.14 8.37A3.37 3.37 0 0 0 2 11.28l1.33 8a3.19 3.19 0 0 0 3 2.57H17.6a3.21 3.21 0 0 0 3-2.57l1.33-8a3.43 3.43 0 0 0-1.07-2.91ZM12 15.5a2.5 2.5 0 1 1 2.5-2.5 2.5 2.5 0 0 1-2.5 2.5Z"/></symbol><symbol id="location"><path d="M20.62 8.45A8.63 8.63 0 0 0 12 1.75a8.62 8.62 0 0 0-8.63 6.69C2.2 13.6 5.36 18 8.22 20.72a5.42 5.42 0 0 0 7.55 0c2.86-2.72 6.02-7.11 4.85-12.27Zm-8.62 5a3.15 3.15 0 1 1 3.15-3.15A3.15 3.15 0 0 1 12 13.46Z"/></symbol><symbol id="mental-health-academy-mob" viewBox="0 0 154 124"><path d="m152.4 46.1-.4-3-3-.4a78.35 78.35 0 0 0-38.57 3A77.76 77.76 0 0 0 90 10.6a133.83 133.83 0 0 0-10.65-9.1L76.75 0l-2.61 1.9A61.91 61.91 0 0 0 63.52 11a80.45 80.45 0 0 0-18.93 30.2 67.29 67.29 0 0 1 7.91 3.4 68.37 68.37 0 0 1 17-27.6 45.48 45.48 0 0 1 7.21-6c2.6 1.9 4.91 4.2 7.21 6a68.85 68.85 0 0 1 18.58 32.5 76.67 76.67 0 0 0-25.75 19.6A77.18 77.18 0 0 0 4.51 42.7l-3 .4-.4 3A87.78 87.78 0 0 0 0 59.6a75.72 75.72 0 0 0 34.77 64.2l4.91-7.2a68.34 68.34 0 0 1-31.06-57 59.81 59.81 0 0 1 .8-8.7 68.76 68.76 0 0 1 8.72-.8 69.8 69.8 0 0 1 23.44 4.2 80.51 80.51 0 0 0 21.94 69.1l6-6c-7.22-7.2-12.13-15.5-15.94-24.2h46.21a70.4 70.4 0 0 1-15.93 24.2l6 6a78.46 78.46 0 0 0 22.64-63.8 32.54 32.54 0 0 0-8.32 4.2 77.21 77.21 0 0 1-1.9 20.8H51.1a69.1 69.1 0 0 1-1.5-26.4 68.74 68.74 0 0 1 23.84 20.4l.4.8h6l.4-.8a68.89 68.89 0 0 1 55.6-28.3 64.09 64.09 0 0 1 8.72.8 68.62 68.62 0 0 1 .8 8.7 68 68 0 0 1-31.06 57l4.91 7.2A76.49 76.49 0 0 0 154 59.8a57 57 0 0 0-1.6-13.7Z"/></symbol><symbol id="menu"><path d="M17.54 8.81a3 3 0 1 0-3-3 3 3 0 0 0 3 3ZM6.46 8.81a3 3 0 1 0-3-3 3 3 0 0 0 3 3ZM17.54 21.11a3 3 0 1 0-3-3 3 3 0 0 0 3 3ZM6.46 21.11a3 3 0 1 0-3-3 3 3 0 0 0 3 3Z"/></symbol><symbol id="message-favorite"><path d="M21 1h-3a1.87 1.87 0 0 0-2 2v3a1.87 1.87 0 0 0 2 2h3a1.87 1.87 0 0 0 2-2V3a1.87 1.87 0 0 0-2-2Zm.64 3.68A2.83 2.83 0 0 1 19.5 6.5a2.8 2.8 0 0 1-2.11-1.82 1.84 1.84 0 0 1-.09-.57 1.55 1.55 0 0 1 1-1.54 1.23 1.23 0 0 1 1.16.2 1.29 1.29 0 0 1 1.18-.2 1.63 1.63 0 0 1 .97 2.11Z"/><path d="M18 9.5A3.53 3.53 0 0 1 14.5 6V3a1 1 0 0 0-1-1H7a5 5 0 0 0-5 5v7a5 5 0 0 0 5 5h1.5a1.11 1.11 0 0 1 .8.4l1.5 2a1.42 1.42 0 0 0 2.4 0l1.5-2a1 1 0 0 1 .8-.4H17a5 5 0 0 0 5-5v-3.5a1 1 0 0 0-1-1ZM8 12a1 1 0 1 1 1-1 1 1 0 0 1-1 1Zm4 0a1 1 0 1 1 1-1 1 1 0 0 1-1 1Z"/></symbol><symbol id="people"><path d="M17.53 7.77h-.21a2.9 2.9 0 1 1 .21 0ZM20.79 14.7a6.21 6.21 0 0 1-4.14.84 6.53 6.53 0 0 0 .59-2.69 6.14 6.14 0 0 0-.64-2.78 6.24 6.24 0 0 1 4.18.83 2.12 2.12 0 0 1 .01 3.8ZM6.44 7.77h.21a2.89 2.89 0 1 0-.21 0ZM6.55 12.85a6.51 6.51 0 0 0 .59 2.72 6.18 6.18 0 0 1-4-.86 2.12 2.12 0 0 1 0-3.81 6.14 6.14 0 0 1 4-.85 6.36 6.36 0 0 0-.59 2.8ZM12.12 15.87h-.26a3.45 3.45 0 1 1 .26 0ZM8.87 17.94a2.05 2.05 0 0 0 0 3.67 6.11 6.11 0 0 0 6.26 0 2.05 2.05 0 0 0 0-3.67 6.11 6.11 0 0 0-6.26 0Z"/></symbol><symbol id="setting"><path d="M20.1 9.22c-1.81 0-2.55-1.28-1.65-2.85a1.9 1.9 0 0 0-.7-2.59L16 2.79a1.67 1.67 0 0 0-2.28.6l-.11.19c-.9 1.57-2.38 1.57-3.29 0l-.11-.19A1.64 1.64 0 0 0 8 2.79l-1.73 1a1.91 1.91 0 0 0-.7 2.6c.91 1.56.17 2.84-1.64 2.84A1.91 1.91 0 0 0 2 11.12v1.76a1.91 1.91 0 0 0 1.9 1.9c1.81 0 2.55 1.28 1.64 2.85a1.9 1.9 0 0 0 .7 2.59l1.73 1a1.67 1.67 0 0 0 2.28-.6l.11-.19c.9-1.57 2.38-1.57 3.29 0l.11.19a1.67 1.67 0 0 0 2.28.6l1.73-1a1.9 1.9 0 0 0 .7-2.59c-.91-1.57-.17-2.85 1.64-2.85a1.91 1.91 0 0 0 1.9-1.9v-1.76a1.92 1.92 0 0 0-1.91-1.9Zm-8.1 6A3.25 3.25 0 1 1 15.25 12 3.26 3.26 0 0 1 12 15.25Z"/></symbol><symbol id="share"><path d="M20.36 12.73a.73.73 0 0 1-.72-.65 7.61 7.61 0 0 0-3.24-5.44.73.73 0 1 1 .83-1.19 9.11 9.11 0 0 1 3.86 6.48.73.73 0 0 1-.65.8ZM3.74 12.78h-.07A.73.73 0 0 1 3 12a9.08 9.08 0 0 1 3.8-6.49.72.72 0 0 1 .84 1.18 7.63 7.63 0 0 0-3.19 5.45.74.74 0 0 1-.71.64ZM16 21.1a9.11 9.11 0 0 1-8-.1.71.71 0 0 1-.32-1 .73.73 0 0 1 1-.33 7.47 7.47 0 0 0 2 .67 7.64 7.64 0 0 0 2.78 0 7.55 7.55 0 0 0 2-.63.73.73 0 0 1 .54 1.39ZM12.05 2a2.82 2.82 0 1 0 2.82 2.82A2.82 2.82 0 0 0 12.05 2ZM5.05 13.87a2.82 2.82 0 1 0 2.82 2.82 2.82 2.82 0 0 0-2.82-2.82ZM19 13.87a2.82 2.82 0 1 0 2.82 2.82A2.82 2.82 0 0 0 19 13.87Z"/></symbol><symbol id="shield-tick"><path d="M18.54 4.12 13 2.06a3.48 3.48 0 0 0-2.07 0L5.47 4.12a3.18 3.18 0 0 0-1.92 2.77V15a3.32 3.32 0 0 0 1.18 2.36l5.5 4.11a3.12 3.12 0 0 0 3.53 0l5.5-4.11A3.34 3.34 0 0 0 20.44 15V6.89a3.16 3.16 0 0 0-1.9-2.77Zm-3.06 5.6L11.18 14a.75.75 0 0 1-1.06 0l-1.6-1.6a.75.75 0 0 1 1.06-1.06l1.08 1.08 3.77-3.77a.75.75 0 1 1 1.05 1.07Z"/></symbol><symbol id="sms"><path d="M17 3.5H7c-3 0-5 1.5-5 5v7c0 3.5 2 5 5 5h10c3 0 5-1.5 5-5v-7c0-3.5-2-5-5-5Zm.47 6.09-3.13 2.5a3.86 3.86 0 0 1-4.68 0l-3.13-2.5a.77.77 0 0 1-.12-1.06.75.75 0 0 1 1-.12l3.13 2.5a2.39 2.39 0 0 0 2.81 0l3.13-2.5a.74.74 0 0 1 1 .12.76.76 0 0 1-.01 1.06Z"/></symbol><symbol id="spotify"><path d="M12 2a10 10 0 1 0 10 10A10 10 0 0 0 12 2Zm3.42 14.58a.74.74 0 0 1-.61.31.82.82 0 0 1-.44-.14 5.55 5.55 0 0 0-5.27-.65.75.75 0 0 1-.55-1.39 7 7 0 0 1 6.69.82.75.75 0 0 1 .18 1.05Zm1.1-2.79a.74.74 0 0 1-.61.31.82.82 0 0 1-.44-.14 7.6 7.6 0 0 0-7.26-.89.75.75 0 0 1-.55-1.39 9.08 9.08 0 0 1 8.68 1.07.74.74 0 0 1 .18 1.04Zm1.57-2.68a.74.74 0 0 1-.61.31.82.82 0 0 1-.44-.14A10.65 10.65 0 0 0 6.84 10a.75.75 0 0 1-.55-1.39 12.17 12.17 0 0 1 11.63 1.43.73.73 0 0 1 .17 1.07Z"/></symbol><symbol id="teacher"><path d="M16.83 15.64a1 1 0 0 1 1.55.84v1.29a3.43 3.43 0 0 1-2.18 3L13 21.86a3.65 3.65 0 0 1-2 0L7.8 20.8a3.41 3.41 0 0 1-2.18-3v-1.3a1 1 0 0 1 1.54-.84L9.22 17a5 5 0 0 0 2.79.79A5 5 0 0 0 14.8 17Z"/><path d="m20 6.46-6-3.93a3.91 3.91 0 0 0-3.94 0L4 6.46a3.19 3.19 0 0 0 0 5.34l1.6 1 4.42 2.88a3.91 3.91 0 0 0 3.94 0l4.39-2.88 1.37-.9V15a.75.75 0 0 0 1.5 0v-4.92A3.18 3.18 0 0 0 20 6.46Z"/></symbol><symbol id="user-square"><path d="M16.19 2H7.81C4.17 2 2 4.17 2 7.81v8.38c0 2.81 1.29 4.74 3.56 5.47a6.86 6.86 0 0 0 2.25.34h8.38a6.86 6.86 0 0 0 2.25-.34C20.71 20.93 22 19 22 16.19V7.81C22 4.17 19.83 2 16.19 2Zm4.31 14.19q0 3.21-2.53 4A6.61 6.61 0 0 0 12 17a6.6 6.6 0 0 0-6 3.27c-1.67-.54-2.52-1.9-2.52-4V7.81C3.5 5 5 3.5 7.81 3.5h8.38C19 3.5 20.5 5 20.5 7.81Z"/><path d="M12 8a3.59 3.59 0 1 0 3.58 3.58A3.58 3.58 0 0 0 12 8Z"/></symbol><symbol id="wallet"><path d="M11.94 2.21 9.53 7.82H7.12A5.66 5.66 0 0 0 6 7.93l1-2.4v-.09l.06-.16a1.59 1.59 0 0 1 .08-.18c1.15-2.69 2.45-3.53 4.8-2.89ZM18.73 8.09a6.69 6.69 0 0 0-1.83-.26h-6.28l2.25-5.23v-.07l.44.17 2.21.93a6.62 6.62 0 0 1 2.65 1.67c.09.12.17.23.25.36a1.52 1.52 0 0 1 .2.43 1.34 1.34 0 0 1 .09.26 3.5 3.5 0 0 1 .02 1.74ZM12.52 17.66h.25a.58.58 0 0 0 .55-.6c0-.42-.12-.48-.38-.58l-.42-.15Z"/><path d="M18.29 9.52a5.06 5.06 0 0 0-1.41-.2H7.12a4.78 4.78 0 0 0-1.92.39 4.89 4.89 0 0 0-3 4.49v1.95a5.65 5.65 0 0 0 0 .71q.33 4.77 5.1 5.09a5.39 5.39 0 0 0 .8.05h7.8c3.7 0 5.65-1.76 5.84-5.26V14.2a4.9 4.9 0 0 0-3.45-4.68Zm-5 6a1.48 1.48 0 0 1 1.08 1.56 1.61 1.61 0 0 1-1.59 1.64h-.25v.22a.52.52 0 0 1-1 0v-.24h-.09a1.78 1.78 0 0 1-1.75-1.81.52.52 0 0 1 1 0 .75.75 0 0 0 .71.77h.09V16l-.76-.27a1.48 1.48 0 0 1-1.08-1.56 1.61 1.61 0 0 1 1.59-1.64h.25v-.22a.52.52 0 0 1 1 0v.22h.09a1.78 1.78 0 0 1 1.75 1.81.52.52 0 0 1-1 0 .75.75 0 0 0-.71-.77h-.09v1.69Z"/><path d="M10.68 14.14c0 .42.12.48.38.58l.42.15v-1.33h-.25a.57.57 0 0 0-.55.6Z"/></symbol><symbol id="youtube"><path d="M17 4H7a4.72 4.72 0 0 0-5 5v6a4.72 4.72 0 0 0 5 5h10a4.72 4.72 0 0 0 5-5V9a4.72 4.72 0 0 0-5-5Zm-3.11 9-2.47 1.48c-1 .6-1.82.14-1.82-1v-3c0-1.17.82-1.63 1.82-1L13.89 11a1.11 1.11 0 0 1 0 2Z"/></symbol></svg>