<svg xmlns="http://www.w3.org/2000/svg" width="24" height="24" viewBox="0 0 24 24"><path d="M18,2H6A3,3,0,0,0,3,5V15.88a3,3,0,0,0,3,3h.76a3,3,0,0,1,2.12.87l1.71,1.69a2,2,0,0,0,2.83,0l1.71-1.69a3,3,0,0,1,2.12-.87H18a3,3,0,0,0,3-3V5A3,3,0,0,0,18,2ZM10.38,13a.75.75,0,0,1,0,1.5H7.7a1.36,1.36,0,0,1-1.11-.57,1.3,1.3,0,0,1-.19-1.16,4.37,4.37,0,0,1,2-2.17c.8-.54,1.25-.88,1.25-1.46a.94.94,0,1,0-1.87,0,.75.75,0,0,1-1.5,0,2.44,2.44,0,0,1,4.88,0c0,1.41-1.06,2.13-1.91,2.71A3.92,3.92,0,0,0,7.94,13h2.44Zm6.62.07h-.21v.69a.75.75,0,0,1-1.5,0v-.69h-2a1.39,1.39,0,0,1-1.19-.68,1.36,1.36,0,0,1,0-1.38c.68-1.17,1.47-2.5,2.19-3.66a1.33,1.33,0,0,1,2.46.71v3.52H17a.76.76,0,0,1,.75.75A.75.75,0,0,1,17,13.08Z"/><path d="M15.29,11.58V8.64c-.59,1-1.2,2-1.75,2.93h1.75Z"/></svg>