<svg xmlns="http://www.w3.org/2000/svg" width="24" height="24" viewBox="0 0 24 24"><path d="M7.24,2H5.34A3,3,0,0,0,2,5.33v1.9a3,3,0,0,0,3.33,3.33h1.9a3,3,0,0,0,3.33-3.33V5.33A3,3,0,0,0,7.24,2Z"/><path d="M18.67,2h-1.9a3,3,0,0,0-3.33,3.33v1.9a3,3,0,0,0,3.33,3.33h1.9A3,3,0,0,0,22,7.23V5.33A3,3,0,0,0,18.67,2Z"/><path d="M18.67,13.43h-1.9a3,3,0,0,0-3.33,3.33v1.9A3,3,0,0,0,16.77,22h1.9A3,3,0,0,0,22,18.66v-1.9A3,3,0,0,0,18.67,13.43Z"/><path d="M7.24,13.43H5.34A3,3,0,0,0,2,16.76v1.9A3,3,0,0,0,5.33,22h1.9a3,3,0,0,0,3.33-3.33v-1.9A3,3,0,0,0,7.24,13.43Z"/></svg>