<svg xmlns="http://www.w3.org/2000/svg" width="24" height="24" viewBox="0 0 24 24"><path d="M21,22H3a.75.75,0,0,1,0-1.5H21A.75.75,0,0,1,21,22Z"/><path d="M19,3.48c-1.94-1.94-3.84-2-5.83,0L12,4.69a.42.42,0,0,0-.1.4,8.13,8.13,0,0,0,5.53,5.53l.12,0a.4.4,0,0,0,.29-.12L19,9.31a4.13,4.13,0,0,0,1.47-2.89A4.12,4.12,0,0,0,19,3.48Z"/><path d="M15.61,11.53c-.29-.14-.57-.28-.84-.44s-.43-.27-.64-.42a6,6,0,0,1-.56-.43l-.17-.15a8.46,8.46,0,0,1-1-1,1.22,1.22,0,0,1-.15-.18,5.82,5.82,0,0,1-.42-.55,5.49,5.49,0,0,1-.39-.59c-.16-.27-.3-.54-.44-.82l-.06-.14a.52.52,0,0,0-.84-.17L4.34,12.33a1.2,1.2,0,0,0-.28.55l-.54,3.83A2,2,0,0,0,4,18.46a2,2,0,0,0,1.4.54,2.19,2.19,0,0,0,.36,0l3.84-.54a1.11,1.11,0,0,0,.55-.28l5.72-5.72a.53.53,0,0,0-.17-.85Z"/></svg>