<svg xmlns="http://www.w3.org/2000/svg" width="24" height="24" viewBox="0 0 24 24"><path d="M16.19,2H7.81C4.17,2,2,4.17,2,7.81v8.37C2,19.83,4.17,22,7.81,22h8.37C19.82,22,22,19.83,22,16.19V7.81C22,4.17,19.83,2,16.19,2ZM6.47,9.28a.75.75,0,0,1,0-1.06,3.34,3.34,0,0,1,4.7,0,.75.75,0,0,1,0,1.06.75.75,0,0,1-1.06,0,1.83,1.83,0,0,0-2.58,0A.74.74,0,0,1,6.47,9.28Zm9.13,8.8H8.4A1.27,1.27,0,0,1,7.13,16.8a4.88,4.88,0,0,1,9.76,0A1.3,1.3,0,0,1,15.6,18.08Zm1.93-8.8a.75.75,0,0,1-1.06,0,1.83,1.83,0,0,0-2.58,0,.75.75,0,0,1-1.06,0,.75.75,0,0,1,0-1.06,3.34,3.34,0,0,1,4.7,0A.75.75,0,0,1,17.53,9.28Z"/></svg>