<svg xmlns="http://www.w3.org/2000/svg" width="24" height="24" viewBox="0 0 24 24"><path d="M22,16.19C22,19.83,19.83,22,16.19,22H15a1,1,0,0,1-1-1V15.23a.5.5,0,0,1,.49-.5l1.76,0a.32.32,0,0,0,.29-.25l.35-1.91a.3.3,0,0,0-.3-.35l-2.13,0a.51.51,0,0,1-.51-.49l0-2.45a.3.3,0,0,1,.3-.3l2.4,0a.29.29,0,0,0,.3-.3l0-2.4a.29.29,0,0,0-.3-.3l-2.7,0a3,3,0,0,0-2.95,3L11,11.78a.5.5,0,0,1-.49.51l-1.2,0a.29.29,0,0,0-.3.3l0,1.9a.29.29,0,0,0,.3.3l1.2,0a.51.51,0,0,1,.51.49l.09,5.7a1,1,0,0,1-1,1H7.81C4.17,22,2,19.83,2,16.18V7.81C2,4.17,4.17,2,7.81,2h8.38C19.83,2,22,4.17,22,7.81v8.38Z"/></svg>