<svg xmlns="http://www.w3.org/2000/svg" width="24" height="24" viewBox="0 0 24 24"><path d="M7.65,20.91l-.1,0a10,10,0,0,1-4.49-4.49s0-.07,0-.1a31.89,31.89,0,0,0,3.73.84A33.55,33.55,0,0,0,7.65,20.91Z"/><path d="M20.94,16.45A10.09,10.09,0,0,1,16.29,21a30.56,30.56,0,0,0,.91-3.84,31.28,31.28,0,0,0,3.72-.84S20.94,16.42,20.94,16.45Z"/><path d="M21,7.71A31.64,31.64,0,0,0,17.2,6.8,27.91,27.91,0,0,0,16.29,3,10.05,10.05,0,0,1,21,7.71Z"/><path d="M7.65,3.09a31.25,31.25,0,0,0-.83,3.72A28.87,28.87,0,0,0,3,7.71,10.09,10.09,0,0,1,7.55,3.06Z"/><path d="M15.49,6.59a31.33,31.33,0,0,0-7,0,28.37,28.37,0,0,1,1-4.06,1.64,1.64,0,0,0,0-.22A10.41,10.41,0,0,1,12,2a10.32,10.32,0,0,1,2.44.31,1.66,1.66,0,0,0,0,.22A28.71,28.71,0,0,1,15.49,6.59Z"/><path d="M6.59,15.49a28,28,0,0,1-4.06-1,1.64,1.64,0,0,0-.22,0A10.41,10.41,0,0,1,2,12a10.32,10.32,0,0,1,.31-2.44l.22,0a29.77,29.77,0,0,1,4.06-1A32.57,32.57,0,0,0,6.59,15.49Z"/><path d="M22,12a10.41,10.41,0,0,1-.31,2.45,1.64,1.64,0,0,0-.22,0,30.14,30.14,0,0,1-4.06,1,31.33,31.33,0,0,0,0-7,28.37,28.37,0,0,1,4.06,1,.83.83,0,0,0,.22,0A10.39,10.39,0,0,1,22,12Z"/><path d="M15.49,17.41a28,28,0,0,1-1,4.06,1.66,1.66,0,0,0,0,.22A10.32,10.32,0,0,1,12,22a10.41,10.41,0,0,1-2.45-.31,1.64,1.64,0,0,0,0-.22,29.77,29.77,0,0,1-1-4.06,31.29,31.29,0,0,0,3.49.22A31.14,31.14,0,0,0,15.49,17.41Z"/><path d="M15.76,15.76a29.57,29.57,0,0,1-7.52,0,29.57,29.57,0,0,1,0-7.52,29.57,29.57,0,0,1,7.52,0A29.57,29.57,0,0,1,15.76,15.76Z"/></svg>