<svg xmlns="http://www.w3.org/2000/svg" width="24" height="24" viewBox="0 0 24 24"><path d="M17.2,12.4a4.8,4.8,0,0,0-4.8,4.8,4.65,4.65,0,0,0,.7,2.47,4.79,4.79,0,1,0,4.1-7.27Zm2.38,4.17L17,18.93a.76.76,0,0,1-.51.2.74.74,0,0,1-.53-.22L14.8,17.73a.75.75,0,0,1,1.06-1.06l.67.67,2-1.88a.76.76,0,0,1,1.06,0A.77.77,0,0,1,19.58,16.57Z"/><path d="M22,8.73A10.68,10.68,0,0,1,21.48,12a.31.31,0,0,1-.49.14A6.33,6.33,0,0,0,10.9,17.24a6.27,6.27,0,0,0,.81,3.08c.16.28,0,.64-.33.53C9,20,4.1,17,2.52,12A10.68,10.68,0,0,1,2,8.73,5.55,5.55,0,0,1,12,5.37,5.55,5.55,0,0,1,22,8.73Z"/></svg>