<svg xmlns="http://www.w3.org/2000/svg" width="24" height="24" viewBox="0 0 24 24"><path d="M16.19,2H7.81C4.17,2,2,4.17,2,7.81v8.37C2,19.83,4.17,22,7.81,22h8.37C19.82,22,22,19.83,22,16.19V7.81C22,4.17,19.83,2,16.19,2ZM12,15.88A3.88,3.88,0,1,1,15.88,12,3.88,3.88,0,0,1,12,15.88Zm5.92-9a1.15,1.15,0,0,1-.21.33,1.15,1.15,0,0,1-.33.21,1,1,0,0,1-1.09-.21,1.15,1.15,0,0,1-.21-.33.94.94,0,0,1,0-.76,1,1,0,0,1,.21-.33,1,1,0,0,1,.9-.27.6.6,0,0,1,.19.06.76.76,0,0,1,.18.09l.15.12a1,1,0,0,1,.21.33.94.94,0,0,1,0,.76Z"/></svg>