<svg xmlns="http://www.w3.org/2000/svg" width="24" height="24" viewBox="0 0 24 24"><path d="M22,16.19C22,19.83,19.83,22,16.19,22H7.81C4.17,22,2,19.83,2,16.18V7.81C2,4.17,4.17,2,7.81,2h8.38C19.83,2,22,4.17,22,7.81ZM8.57,17.37a.81.81,0,0,0,.23-.57V10.4a.8.8,0,1,0-1.6,0v6.4a.81.81,0,0,0,1.37.57ZM7.33,8.2A1.2,1.2,0,1,0,8.46,6.09,1.25,1.25,0,0,0,7.77,6a1.2,1.2,0,0,0-.95,1,1.25,1.25,0,0,0,.07.69A1.23,1.23,0,0,0,7.33,8.2Zm10,9.17a.81.81,0,0,0,.23-.57V13.2A3.62,3.62,0,0,0,15.69,10a3.63,3.63,0,0,0-3.71.2.82.82,0,0,0-.87-.62.83.83,0,0,0-.51.27.78.78,0,0,0-.2.53v6.4a.8.8,0,1,0,1.6,0V13.2a2,2,0,0,1,4,0v3.6a.81.81,0,0,0,1.37.57Z" fill-rule="evenodd"/></svg>