<svg xmlns="http://www.w3.org/2000/svg" width="24" height="24" viewBox="0 0 24 24"><path d="M21,1H18a1.87,1.87,0,0,0-2,2V6a1.87,1.87,0,0,0,2,2H21a1.87,1.87,0,0,0,2-2V3A1.87,1.87,0,0,0,21,1Zm.64,3.68A2.83,2.83,0,0,1,19.5,6.5a2.8,2.8,0,0,1-2.11-1.82,1.84,1.84,0,0,1-.09-.57,1.55,1.55,0,0,1,1-1.54,1.23,1.23,0,0,1,1.16.2,1.29,1.29,0,0,1,1.18-.2A1.63,1.63,0,0,1,21.61,4.68Z"/><path d="M18,9.5A3.53,3.53,0,0,1,14.5,6V3a1,1,0,0,0-1-1H7A5,5,0,0,0,2,7v7a5,5,0,0,0,5,5H8.5a1.11,1.11,0,0,1,.8.4l1.5,2a1.42,1.42,0,0,0,2.4,0l1.5-2a1,1,0,0,1,.8-.4H17a5,5,0,0,0,5-5V10.5a1,1,0,0,0-1-1ZM8,12a1,1,0,1,1,1-1A1,1,0,0,1,8,12Zm4,0a1,1,0,1,1,1-1A1,1,0,0,1,12,12Z"/></svg>