<svg xmlns="http://www.w3.org/2000/svg" width="24" height="24" viewBox="0 0 24 24"><path d="M20.1,9.22c-1.81,0-2.55-1.28-1.65-2.85a1.9,1.9,0,0,0-.7-2.59L16,2.79a1.67,1.67,0,0,0-2.28.6l-.11.19c-.9,1.57-2.38,1.57-3.29,0l-.11-.19A1.64,1.64,0,0,0,8,2.79l-1.73,1a1.91,1.91,0,0,0-.7,2.6c.91,1.56.17,2.84-1.64,2.84A1.91,1.91,0,0,0,2,11.12v1.76a1.91,1.91,0,0,0,1.9,1.9c1.81,0,2.55,1.28,1.64,2.85a1.9,1.9,0,0,0,.7,2.59l1.73,1a1.67,1.67,0,0,0,2.28-.6l.11-.19c.9-1.57,2.38-1.57,3.29,0l.11.19a1.67,1.67,0,0,0,2.28.6l1.73-1a1.9,1.9,0,0,0,.7-2.59c-.91-1.57-.17-2.85,1.64-2.85a1.91,1.91,0,0,0,1.9-1.9V11.12A1.92,1.92,0,0,0,20.1,9.22Zm-8.1,6A3.25,3.25,0,1,1,15.25,12,3.26,3.26,0,0,1,12,15.25Z"/></svg>