<svg xmlns="http://www.w3.org/2000/svg" width="24" height="24" viewBox="0 0 24 24"><path d="M20.36,12.73a.73.73,0,0,1-.72-.65A7.61,7.61,0,0,0,16.4,6.64a.73.73,0,1,1,.83-1.19,9.11,9.11,0,0,1,3.86,6.48.73.73,0,0,1-.65.8Z"/><path d="M3.74,12.78H3.67A.73.73,0,0,1,3,12a9.08,9.08,0,0,1,3.8-6.49.72.72,0,0,1,.84,1.18,7.63,7.63,0,0,0-3.19,5.45A.74.74,0,0,1,3.74,12.78Z"/><path d="M16,21.1A9.11,9.11,0,0,1,8,21a.71.71,0,0,1-.32-1,.73.73,0,0,1,1-.33,7.47,7.47,0,0,0,2,.67,7.64,7.64,0,0,0,2.78,0,7.55,7.55,0,0,0,2-.63A.73.73,0,0,1,16,21.1Z"/><path d="M12.05,2a2.82,2.82,0,1,0,2.82,2.82A2.82,2.82,0,0,0,12.05,2Z"/><path d="M5.05,13.87a2.82,2.82,0,1,0,2.82,2.82A2.82,2.82,0,0,0,5.05,13.87Z"/><path d="M19,13.87a2.82,2.82,0,1,0,2.82,2.82A2.82,2.82,0,0,0,19,13.87Z"/></svg>