<svg xmlns="http://www.w3.org/2000/svg" width="24" height="24" viewBox="0 0 24 24"><path d="M12,2A10,10,0,1,0,22,12,10,10,0,0,0,12,2Zm3.42,14.58a.74.74,0,0,1-.61.31.82.82,0,0,1-.44-.14A5.55,5.55,0,0,0,9.1,16.1a.75.75,0,0,1-.55-1.39,7,7,0,0,1,6.69.82A.75.75,0,0,1,15.42,16.58Zm1.1-2.79a.74.74,0,0,1-.61.31.82.82,0,0,1-.44-.14,7.6,7.6,0,0,0-7.26-.89.75.75,0,0,1-.55-1.39,9.08,9.08,0,0,1,8.68,1.07A.74.74,0,0,1,16.52,13.79Zm1.57-2.68a.74.74,0,0,1-.61.31.82.82,0,0,1-.44-.14A10.65,10.65,0,0,0,6.84,10a.75.75,0,0,1-.55-1.39,12.17,12.17,0,0,1,11.63,1.43A.73.73,0,0,1,18.09,11.11Z"/></svg>