<svg xmlns="http://www.w3.org/2000/svg" width="24" height="24" viewBox="0 0 24 24"><path d="M21.68,3A1.6,1.6,0,0,0,21,2.63a1.55,1.55,0,0,0-.8.09L2.85,9.52a1.43,1.43,0,0,0-.73.6A1.5,1.5,0,0,0,1.9,11a1.51,1.51,0,0,0,1.2,1.34l4.4.88v5.49a1.5,1.5,0,0,0,.25.83,1.51,1.51,0,0,0,1.82.56,1.51,1.51,0,0,0,.49-.33l2.44-2.43,3.68,3.24a1.49,1.49,0,0,0,1,.38,1.21,1.21,0,0,0,.46-.08,1.36,1.36,0,0,0,.65-.41,1.46,1.46,0,0,0,.36-.67l3.52-15.4a1.55,1.55,0,0,0,0-.8A1.53,1.53,0,0,0,21.68,3ZM17.18,19.5,9.45,12.7l11.13-8Z"/></svg>