<svg xmlns="http://www.w3.org/2000/svg" width="24" height="24" viewBox="0 0 24 24"><path d="M11.94,2.21,9.53,7.82H7.12A5.66,5.66,0,0,0,6,7.93l1-2.4,0-.09.06-.16a1.59,1.59,0,0,1,.08-.18C8.29,2.41,9.59,1.57,11.94,2.21Z"/><path d="M18.73,8.09h0a6.69,6.69,0,0,0-1.83-.26H10.62l2.25-5.23,0-.07.44.17,2.21.93A6.62,6.62,0,0,1,18.17,5.3c.09.12.17.23.25.36a1.52,1.52,0,0,1,.2.43,1.34,1.34,0,0,1,.09.26A3.5,3.5,0,0,1,18.73,8.09Z"/><path d="M12.52,17.66h.25a.58.58,0,0,0,.55-.6c0-.42-.12-.48-.38-.58l-.42-.15Z"/><path d="M18.29,9.52a5.06,5.06,0,0,0-1.41-.2H7.12a4.78,4.78,0,0,0-1.92.39,4.89,4.89,0,0,0-3,4.49v1.95a5.65,5.65,0,0,0,0,.71q.33,4.77,5.1,5.09A5.39,5.39,0,0,0,8.1,22h7.8c3.7,0,5.65-1.76,5.84-5.26,0-.19,0-.39,0-.59V14.2A4.9,4.9,0,0,0,18.29,9.52Zm-5,6a1.48,1.48,0,0,1,1.08,1.56,1.61,1.61,0,0,1-1.59,1.64h-.25v.22a.52.52,0,0,1-1,0V18.7h-.09a1.78,1.78,0,0,1-1.75-1.81.52.52,0,0,1,1,0,.75.75,0,0,0,.71.77h.09V16l-.76-.27a1.48,1.48,0,0,1-1.08-1.56,1.61,1.61,0,0,1,1.59-1.64h.25v-.22a.52.52,0,0,1,1,0v.22h.09a1.78,1.78,0,0,1,1.75,1.81.52.52,0,0,1-1,0,.75.75,0,0,0-.71-.77h-.09v1.69Z"/><path d="M10.68,14.14c0,.42.12.48.38.58l.42.15V13.54h-.25A.57.57,0,0,0,10.68,14.14Z"/></svg>