<svg xmlns="http://www.w3.org/2000/svg" width="52" height="64" viewBox="0 0 52 64"><path d="M32.66,63.37l1.27-.16L34.09,62a32.21,32.21,0,0,0-1.27-16,32.69,32.69,0,0,0,14.74-8.49A52.8,52.8,0,0,0,51.37,33L52,31.9l-.79-1.1a25.79,25.79,0,0,0-3.81-4.4,33.39,33.39,0,0,0-12.68-7.86,30.15,30.15,0,0,1-1.43,3.3,28.43,28.43,0,0,1,11.58,7.07,23.35,23.35,0,0,1,2.53,3c-.79,1.1-1.74,2-2.53,3a29,29,0,0,1-13.64,7.7A32,32,0,0,0,23,31.92a32,32,0,0,0,11.1-30L33.93.63,32.66.47A35.72,35.72,0,0,0,27,0,31.86,31.86,0,0,0,0,14.47l3,2A28.82,28.82,0,0,1,27,3.62a26.31,26.31,0,0,1,3.65.31A29.3,29.3,0,0,1,31,7.55a29.45,29.45,0,0,1-1.74,9.75,34,34,0,0,0-29,9.12L2.7,28.93a32.16,32.16,0,0,1,10.14-6.6V41.51A29.53,29.53,0,0,1,2.7,34.91L.16,37.43A33.22,33.22,0,0,0,27,46.86a14,14,0,0,0-1.74-3.46,32.78,32.78,0,0,1-8.72-.79V21.23a29.24,29.24,0,0,1,11.1-.63A28.71,28.71,0,0,1,19,30.51l-.31.15v2.52l.31.16A28.49,28.49,0,0,1,30.91,56.45a27.48,27.48,0,0,1-.31,3.62,31.9,31.9,0,0,1-3.65.31A28.59,28.59,0,0,1,3,47.49l-3,2A32.25,32.25,0,0,0,27,64,23.4,23.4,0,0,0,32.66,63.37Z"/></svg>
