<svg xmlns="http://www.w3.org/2000/svg" width="52" height="64" viewBox="0 0 52 64"><path d="M19.34.63,18.07.79,17.91,2a32.25,32.25,0,0,0,1.27,16A32.7,32.7,0,0,0,4.44,26.58,55.26,55.26,0,0,0,.63,31L0,32.1l.79,1.1A26.17,26.17,0,0,0,4.6,37.6a33.39,33.39,0,0,0,12.68,7.86,30.15,30.15,0,0,1,1.43-3.3A28.43,28.43,0,0,1,7.13,35.09a24.06,24.06,0,0,1-2.53-3c.79-1.11,1.74-2,2.53-3a29,29,0,0,1,13.64-7.7A32,32,0,0,0,29,32.1a32,32,0,0,0-11.1,30l.16,1.26,1.27.16A35.29,35.29,0,0,0,25,64,31.85,31.85,0,0,0,52,49.55l-3-2A28.8,28.8,0,0,1,25.05,60.41a26.31,26.31,0,0,1-3.65-.31,29.3,29.3,0,0,1-.31-3.62,29.51,29.51,0,0,1,1.74-9.76,34,34,0,0,0,29-9.12L49.3,35.09a32.16,32.16,0,0,1-10.14,6.6V22.5A29.68,29.68,0,0,1,49.3,29.1l2.54-2.52a33.25,33.25,0,0,0-26.79-9.43,14,14,0,0,0,1.74,3.46,32.78,32.78,0,0,1,8.72.79V42.79a29.24,29.24,0,0,1-11.1.63A28.75,28.75,0,0,1,33,33.51l.31-.15V30.83L33,30.67A28.48,28.48,0,0,1,21.09,7.55a27.48,27.48,0,0,1,.31-3.62,31.9,31.9,0,0,1,3.65-.31,28.6,28.6,0,0,1,24,12.9l3-2A32.26,32.26,0,0,0,25.05,0,23.86,23.86,0,0,0,19.34.63Z"/></svg>
